<svg width="112" height="35" viewBox="0 0 112 35" fill="none" xmlns="http://www.w3.org/2000/svg">
<g clip-path="url(#clip0_8204_10615)">
<g clip-path="url(#clip1_8204_10615)">
<g clip-path="url(#clip2_8204_10615)">
<path d="M59.2018 22.6327C59.1299 22.9239 59.0408 23.3059 58.933 23.7803C58.8267 24.253 58.7223 24.7634 58.6212 25.3098C58.575 25.5615 58.5339 25.8082 58.4894 26.0565H58.2359C58.1879 25.8047 58.1434 25.5547 58.0937 25.3012C57.9875 24.7617 57.883 24.2718 57.782 23.8351C57.681 23.3984 57.5953 23.0387 57.5233 22.7595L56.5591 19.1147H51.4175V30.0455H54.3445V23.8608C54.3445 23.1329 54.3411 22.4324 54.3359 21.7575H54.5672C54.5706 21.7729 54.574 21.7884 54.5775 21.8038C54.7316 22.5146 54.9046 23.2545 55.0947 24.0252C55.2848 24.796 55.5058 25.6369 55.7558 26.548L56.5591 29.518H59.469L60.3083 26.6388C60.5704 25.7773 60.8016 24.9347 61.0054 24.116C61.2074 23.2956 61.389 22.5162 61.55 21.7746C61.55 21.7678 61.5517 21.7627 61.5534 21.7575H61.7606C61.7316 22.4289 61.7059 23.1243 61.6836 23.8522C61.6596 24.6058 61.6476 25.3354 61.6476 26.0394V30.0472H64.8607V19.1165H60.1301L59.2018 22.6327Z" fill="#0D2318"/>
<path d="M72.8332 21.6135C72.1722 21.2487 71.3847 21.0671 70.4681 21.0671C69.5515 21.0671 68.74 21.2487 68.0669 21.6135C67.3938 21.9766 66.8765 22.5058 66.5134 23.1978C66.1503 23.8897 65.9688 24.7221 65.9688 25.6932C65.9688 26.6643 66.1503 27.4779 66.5134 28.1699C66.8765 28.8618 67.3938 29.3944 68.0669 29.7644C68.74 30.1343 69.5398 30.3193 70.4681 30.3193C71.8485 30.3193 72.9376 29.91 73.734 29.0896C74.5324 28.2692 74.9316 27.1371 74.9316 25.6915C74.9316 24.7204 74.7468 23.888 74.3785 23.196C74.0102 22.5041 73.4942 21.9749 72.8332 21.6117V21.6135ZM71.5744 27.197C71.3607 27.543 70.9855 27.716 70.4496 27.716C70.093 27.716 69.8071 27.6406 69.5927 27.4899C69.379 27.3374 69.2244 27.1096 69.1289 26.8065C69.0327 26.5033 68.9867 26.1317 68.9867 25.6949C68.9867 25.027 69.096 24.52 69.3172 24.174C69.5364 23.828 69.915 23.655 70.4509 23.655C70.8089 23.655 71.0934 23.7338 71.3092 23.8914C71.5229 24.049 71.6754 24.2802 71.7647 24.5834C71.854 24.8865 71.898 25.2565 71.898 25.6932C71.898 26.3492 71.7901 26.8493 71.5764 27.197H71.5744Z" fill="#0D2318"/>
<path d="M83.0905 21.4217C82.7566 21.1853 82.3478 21.0654 81.8592 21.0654C81.3714 21.0654 80.9639 21.1922 80.5647 21.4474C80.1655 21.7026 79.826 22.0914 79.5471 22.6121C79.3794 22.9272 79.2386 23.292 79.1238 23.7065H78.9307V21.3377H75.9844V30.0454H79.0194V25.2736C79.0194 24.9808 79.0675 24.729 79.1637 24.5183C79.2592 24.3042 79.3897 24.1415 79.556 24.0268C79.7216 23.9103 79.9243 23.8537 80.162 23.8537C80.3641 23.8537 80.5303 23.9 80.6623 23.9908C80.7921 24.0833 80.8966 24.2066 80.9742 24.3642C81.0512 24.5235 81.0903 24.717 81.0903 24.9465V30.0471H84.1253V24.0525C84.1253 23.4205 84.036 22.8844 83.8567 22.4408C83.678 21.9972 83.4217 21.6564 83.0892 21.42L83.0905 21.4217Z" fill="#0D2318"/>
<path d="M94.0712 21.5416V21.3395H90.6253L88.9686 24.5286H88.4993V18.3696H85.4644V30.047H88.4993V26.7329H88.8938L90.7139 30.047H94.1598V29.8467L91.3852 25.5648L94.0712 21.5416Z" fill="#0D2318"/>
<path d="M100.597 21.5673C100.031 21.2333 99.2956 21.0654 98.3927 21.0654C97.4287 21.0654 96.6131 21.259 95.9473 21.6478C95.2808 22.0382 94.7771 22.5915 94.4377 23.316C94.0989 24.0388 93.9292 24.9157 93.9292 25.9468C93.9292 26.9778 94.1195 27.7623 94.4995 28.4062C94.8802 29.0502 95.4037 29.5298 96.0703 29.8466C96.7368 30.1618 97.4919 30.3194 98.3377 30.3194C99.1843 30.3194 99.8796 30.1978 100.392 29.9562C100.903 29.7131 101.299 29.3876 101.578 28.98C101.858 28.5741 102.058 28.1339 102.178 27.6595L99.6604 26.9676C99.6123 27.1268 99.5402 27.2707 99.4461 27.4043C99.3499 27.5379 99.22 27.6475 99.0537 27.7314C98.8861 27.817 98.6545 27.8582 98.357 27.8582C97.8327 27.8582 97.4575 27.6955 97.2315 27.3666C97.0652 27.1251 96.9628 26.7552 96.9181 26.255H102.231C102.267 26.0255 102.287 25.8183 102.293 25.635C102.298 25.4535 102.303 25.2582 102.303 25.0527C102.303 24.2511 102.159 23.5523 101.875 22.958C101.588 22.3637 101.164 21.8978 100.599 21.5639L100.597 21.5673ZM96.9127 25.0561C96.9539 24.5115 97.0569 24.1124 97.2232 23.8623C97.4438 23.5283 97.8038 23.3605 98.3034 23.3605C98.7555 23.3605 99.0867 23.5215 99.2956 23.8435C99.4667 24.109 99.5457 24.5132 99.5354 25.0544H96.9147L96.9127 25.0561Z" fill="#0D2318"/>
<path d="M108.229 21.3396L107.623 24.6555C107.526 25.1402 107.436 25.6317 107.345 26.1302C107.294 26.4162 107.239 26.7091 107.184 27.0054H106.977C106.907 26.6028 106.83 26.197 106.746 25.7945C106.663 25.3869 106.58 24.9895 106.496 24.6007L105.8 21.3396H102.496L105.409 29.917C105.403 29.9308 105.396 29.9461 105.39 29.9581C105.269 30.1637 105.112 30.3007 104.915 30.3675C104.718 30.4343 104.442 30.4685 104.086 30.4685C103.907 30.4685 103.723 30.4548 103.532 30.4308C103.341 30.4069 103.158 30.376 102.979 30.3401L102.568 32.8355C102.807 32.8732 103.034 32.9023 103.255 32.928C103.476 32.952 103.735 32.964 104.031 32.964C104.817 32.964 105.48 32.8578 106.021 32.6454C106.562 32.433 107.013 32.1093 107.369 31.6709C107.725 31.2341 108.03 30.6741 108.279 29.9941L111.492 21.3413H108.224L108.229 21.3396Z" fill="#0D2318"/>
<path d="M58.2711 12.9164C58.129 13.223 57.932 13.4525 57.6785 13.6066C57.425 13.759 57.0876 13.8344 56.6629 13.8344C56.1576 13.8344 55.75 13.7162 55.4434 13.4816C55.1369 13.2469 54.9159 12.9164 54.7823 12.4933C54.647 12.0685 54.5785 11.5513 54.5785 10.9399C54.5785 10.4346 54.6453 9.97386 54.7823 9.56283C54.9176 9.15001 55.1385 8.81435 55.4434 8.55572C55.75 8.29709 56.1559 8.16695 56.6629 8.16695C57.2743 8.16695 57.7231 8.33818 58.0056 8.67906C58.2882 9.02159 58.4818 9.52174 58.588 10.1811L61.6264 9.61422C61.5322 8.69617 61.2856 7.92543 60.8848 7.30201C60.484 6.67856 59.9376 6.20756 59.2422 5.88899C58.5469 5.57042 57.7231 5.41113 56.7708 5.41113C55.6986 5.41113 54.76 5.62522 53.9533 6.05512C53.1466 6.48673 52.5232 7.1136 52.0813 7.93745C51.6394 8.76296 51.4185 9.76319 51.4185 10.9399C51.4185 11.8219 51.5401 12.6115 51.7799 13.3069C52.0213 14.0005 52.3657 14.5863 52.8126 15.0642C53.2597 15.542 53.8129 15.9068 54.4723 16.1586C55.1317 16.4121 55.8733 16.5388 56.6972 16.5388C57.6391 16.5388 58.463 16.3744 59.1703 16.0438C59.876 15.715 60.4395 15.232 60.8574 14.5966C61.2753 13.9594 61.5374 13.1887 61.6435 12.2826L58.6223 11.7876C58.5281 12.2347 58.4099 12.6115 58.2694 12.9181L58.2711 12.9164Z" fill="#0D2318"/>
<path d="M69.1758 8.09668C68.5235 7.74384 67.7424 7.56567 66.8364 7.56567C65.9304 7.56567 65.1254 7.74213 64.4608 8.09668C63.7946 8.44944 63.2842 8.96162 62.9245 9.633C62.5648 10.3044 62.3867 11.1111 62.3867 12.0514C62.3867 12.9916 62.5648 13.7813 62.9245 14.4526C63.2842 15.124 63.7963 15.6396 64.4608 15.9992C65.1271 16.3572 65.9184 16.537 66.8364 16.537C68.2014 16.537 69.2789 16.1397 70.0684 15.3449C70.8579 14.5503 71.2516 13.4524 71.2516 12.0514C71.2516 11.1093 71.0688 10.3044 70.704 9.633C70.3391 8.96162 69.8286 8.44944 69.1758 8.09668ZM67.9309 13.5089C67.7185 13.8446 67.3485 14.0125 66.8176 14.0125C66.4648 14.0125 66.1821 13.9388 65.9698 13.7932C65.7591 13.6459 65.605 13.425 65.5108 13.1304C65.4166 12.8358 65.3703 12.4762 65.3703 12.0531C65.3703 11.4057 65.4782 10.9141 65.6975 10.5784C65.915 10.2427 66.2884 10.0749 66.8193 10.0749C67.1721 10.0749 67.4547 10.1502 67.6671 10.3044C67.8795 10.4568 68.0285 10.6812 68.1175 10.9758C68.2066 11.2686 68.2511 11.6283 68.2511 12.0531C68.2511 12.6902 68.145 13.175 67.9326 13.5106L67.9309 13.5089Z" fill="#0D2318"/>
<path d="M79.324 7.90999C78.9935 7.68049 78.5874 7.56567 78.1044 7.56567C77.622 7.56567 77.2194 7.68901 76.8236 7.93734C76.4299 8.18401 76.0939 8.56082 75.8163 9.06778C75.65 9.37265 75.5119 9.72721 75.3985 10.1279H75.2082V7.83118H72.2935V16.2749H75.2962V11.6489C75.2962 11.3663 75.3436 11.1214 75.4377 10.9158C75.5318 10.7085 75.6603 10.551 75.8266 10.438C75.9915 10.3266 76.1915 10.2701 76.4265 10.2701C76.6264 10.2701 76.7913 10.3146 76.9212 10.402C77.0511 10.4911 77.1541 10.6127 77.2297 10.7634C77.3067 10.9176 77.3445 11.1059 77.3445 11.3286V16.2749H80.3465V10.4637C80.3465 9.85219 80.2578 9.33156 80.0812 8.90163C79.9046 8.47177 79.6511 8.1412 79.3227 7.91342L79.324 7.90999Z" fill="#0D2318"/>
<path d="M86.3004 13.6411C86.1121 13.689 85.9355 13.7113 85.7713 13.7113C85.4765 13.7113 85.2766 13.6496 85.1701 13.5263C85.0636 13.403 85.0106 13.2231 85.0106 12.9868V10.1608H86.9359V7.82972H85.0106V5.76416H82.0086V7.82972H81.1436V10.1608H82.0086V13.5349C82.0086 14.0761 82.1076 14.5745 82.3082 15.0284C82.5082 15.4806 82.827 15.8453 83.2619 16.1228C83.6969 16.3985 84.2624 16.5373 84.9577 16.5373C85.2985 16.5373 85.5844 16.5236 85.8139 16.4945C86.0434 16.4636 86.2557 16.426 86.4495 16.3797C86.6432 16.3318 86.8521 16.2736 87.0761 16.2033L86.7594 13.5177C86.6412 13.5537 86.4886 13.5931 86.3004 13.6411Z" fill="#0D2318"/>
<path d="M94.1235 7.99721C93.5704 7.7335 92.8338 7.59985 91.9158 7.59985C91.0802 7.59985 90.3849 7.71804 89.8311 7.95269C89.2779 8.18906 88.8533 8.50252 88.5585 8.89816C88.2644 9.29208 88.0707 9.73569 87.9765 10.2323L90.7855 10.8318C90.8556 10.5149 90.9737 10.2872 91.138 10.1519C91.3029 10.0166 91.52 9.94979 91.7907 9.94979C92.1199 9.94979 92.361 10.0354 92.5149 10.205C92.6675 10.3762 92.7444 10.6212 92.7444 10.938V11.5032H90.8727C89.6943 11.5032 88.8657 11.7327 88.3826 12.1917C87.8996 12.6525 87.6577 13.2588 87.6577 14.0107C87.6577 14.5759 87.7656 15.0349 87.9848 15.3894C88.2026 15.7423 88.4905 16.0078 88.8499 16.1841C89.2099 16.3588 89.605 16.4479 90.042 16.4479C90.6309 16.4479 91.1139 16.3075 91.4911 16.0231C91.8677 15.7405 92.1673 15.3568 92.392 14.8739C92.4827 14.6787 92.5582 14.4714 92.6283 14.2556H92.8867V16.2698H95.73V10.9363C95.73 10.2169 95.6001 9.61578 95.3411 9.12594C95.0827 8.63781 94.6752 8.25928 94.1214 7.9955L94.1235 7.99721ZM92.7465 12.9522C92.7465 13.1886 92.6936 13.4026 92.5871 13.5962C92.4813 13.7915 92.3335 13.9404 92.1453 14.0484C91.957 14.1528 91.7275 14.2059 91.4568 14.2059C91.2204 14.2059 91.0301 14.1716 90.883 14.1014C90.736 14.0295 90.6329 13.9387 90.5745 13.8274C90.5161 13.7161 90.4859 13.5825 90.4859 13.43C90.4859 13.1937 90.58 13.0053 90.7683 12.8632C90.9566 12.7227 91.2032 12.6525 91.5097 12.6525H92.7465V12.9522Z" fill="#0D2318"/>
<path d="M101.101 10.1964C101.384 10.1964 101.605 10.2496 101.764 10.3558C101.924 10.4602 102.043 10.6093 102.126 10.7977C102.208 10.9861 102.278 11.1916 102.338 11.4159L105.111 10.9209C105.005 10.2256 104.813 9.62957 104.537 9.12941C104.26 8.62761 103.852 8.24221 103.309 7.97162C102.768 7.69932 102.049 7.56567 101.155 7.56567C100.26 7.56567 99.4294 7.749 98.7705 8.11379C98.1108 8.47858 97.6106 9.00443 97.2684 9.69464C96.9276 10.3831 96.7559 11.2224 96.7559 12.2107C96.7559 13.1989 96.9345 13.997 97.2939 14.6376C97.6539 15.2799 98.1624 15.7578 98.822 16.0694C99.481 16.3812 100.259 16.537 101.153 16.537C102.414 16.537 103.357 16.2442 103.987 15.655C104.618 15.0658 104.991 14.2711 105.109 13.2709L102.372 12.6354C102.324 12.8581 102.254 13.0704 102.16 13.2709C102.066 13.4712 101.935 13.6322 101.771 13.7573C101.605 13.8805 101.395 13.9423 101.136 13.9423C100.829 13.9423 100.582 13.8669 100.394 13.7128C100.206 13.5603 100.064 13.341 99.9695 13.0602C99.8754 12.7776 99.8286 12.4299 99.8286 12.0188C99.8286 11.3595 99.9454 10.8901 100.182 10.6144C100.418 10.3369 100.723 10.1982 101.1 10.1982L101.101 10.1964Z" fill="#0D2318"/>
<path d="M110.816 13.6411C110.628 13.689 110.451 13.7113 110.287 13.7113C109.992 13.7113 109.792 13.6496 109.686 13.5263C109.58 13.403 109.526 13.2231 109.526 12.9868V10.1608H111.452V7.82972H109.526V5.76416H106.524V7.82972H105.659V10.1608H106.524V13.5349C106.524 14.0761 106.623 14.5745 106.824 15.0284C107.024 15.4806 107.343 15.8453 107.778 16.1228C108.213 16.3985 108.778 16.5373 109.473 16.5373C109.814 16.5373 110.1 16.5236 110.33 16.4945C110.559 16.4636 110.772 16.426 110.965 16.3797C111.159 16.3318 111.368 16.2736 111.592 16.2033L111.275 13.5177C111.157 13.5537 111.005 13.5931 110.816 13.6411Z" fill="#0D2318"/>
<path d="M32.4499 31.1605C34.9744 29.1087 36.0347 26.1011 37.4614 23.2871C37.7542 22.9548 38.1721 22.7561 38.5866 22.6071C41.1249 21.8193 42.9747 19.3717 42.9455 16.6965V16.6176C42.9301 14.0468 41.1746 11.6918 38.7631 10.8714C38.3657 10.7139 37.9084 10.5305 37.6172 10.2291C35.0807 5.81369 32.5286 1.22012 26.6711 0.190767C25.0063 -0.0558678 23.2491 0.00065257 21.5192 0.0229182H21.425C19.6968 -0.00106017 17.9396 -0.0575806 16.2731 0.190767C10.4172 1.22012 7.86522 5.8154 5.32867 10.2291C5.03751 10.5305 4.5802 10.7139 4.18285 10.8714C1.77302 11.6918 0.0157536 14.0485 0.000338966 16.6194V16.6982C-0.0287776 19.3735 1.82098 21.8192 4.35926 22.6088C4.77374 22.7579 5.19165 22.9548 5.48453 23.2888C6.91122 26.1028 7.97145 29.1121 10.496 31.1622C12.6814 33.2843 15.8277 34.4867 18.241 34.3462C19.1128 34.3462 20.2603 34.3462 21.425 34.3479H21.5175C22.6838 34.3479 23.8314 34.3479 24.7014 34.3462C27.1147 34.4849 30.2627 33.2843 32.4465 31.1622L32.4499 31.1605ZM13.3905 21.9511C13.3905 21.934 13.3922 21.9169 13.3922 21.8997C10.3196 20.7436 8.129 17.7926 8.129 14.3226C8.129 9.8472 11.7686 6.2179 16.2577 6.2179C18.265 6.2179 20.0993 6.9475 21.5175 8.14989C22.9356 6.9475 24.77 6.2179 26.7773 6.2179C31.2664 6.2179 34.9059 9.8472 34.9059 14.3226C34.9059 17.7909 32.7171 20.7419 29.6427 21.8997C29.6427 21.9169 29.6461 21.934 29.6461 21.9511C29.6461 26.4265 26.0065 30.0558 21.5175 30.0558C17.0284 30.0558 13.3888 26.4265 13.3888 21.9511H13.3905Z" fill="#0D2318"/>
<path d="M31.1874 17.959C31.9187 17.3098 31.8554 15.9722 31.7509 15.0799L31.7338 14.996C30.5503 10.4144 24.977 10.2911 21.0908 10.2773C17.3433 10.2945 12.0133 10.7758 11.1672 15.2255C11.0987 16.2052 11.0131 17.637 12.0527 18.144C13.5839 18.519 15.8893 18.5414 16.9289 17.1557C17.5626 16.4381 17.107 15.1244 17.7305 14.4787C17.9771 14.2372 18.3779 14.2047 18.7204 14.1875C19.8166 14.1328 20.9641 14.1413 22.0277 14.1413C23.0331 14.2115 24.1446 14.0025 25.0815 14.3776C25.4686 14.6003 25.5731 15.1741 25.5817 15.6263C25.5868 16.9604 26.289 17.8014 27.5187 18.1508C28.7006 18.3426 30.1307 18.5927 31.1874 17.9556V17.959Z" fill="#0D2318"/>
</g>
</g>
</g>
<defs>
<clipPath id="clip0_8204_10615">
<rect width="112" height="34.3558" fill="white"/>
</clipPath>
<clipPath id="clip1_8204_10615">
<rect width="112" height="34.3558" fill="white"/>
</clipPath>
<clipPath id="clip2_8204_10615">
<rect width="112" height="34.3558" fill="white"/>
</clipPath>
</defs>
</svg>
