<svg width="167" height="28" viewBox="0 0 167 28" fill="none" xmlns="http://www.w3.org/2000/svg">
<g clip-path="url(#clip0_8204_10182)">
<path d="M36.5225 12.9509V10.4648H38.1202V9.8248C38.1202 7.09225 39.7673 5.59076 42.3236 5.59076C44.3393 5.59076 45.6912 6.57536 46.1337 8.37227L43.9214 9.06166C43.6755 8.4954 43.3068 8.15082 42.6923 8.15082C41.9302 8.15082 41.6352 8.74166 41.6352 9.55397V10.4648H44.4621V12.9509H41.6352V21.3944H38.1202V12.9509H36.5225Z" fill="#111111"/>
<path d="M50.7061 21.69C47.2156 21.69 44.8311 19.3266 44.8311 15.9299C44.8311 12.5573 47.2156 10.1696 50.7061 10.1696C54.1966 10.1696 56.6054 12.5573 56.6054 15.9299C56.6054 19.3266 54.1966 21.69 50.7061 21.69ZM50.7061 19.0066C52.2547 19.0066 53.0166 17.7512 53.0166 15.9299C53.0166 14.1082 52.2547 12.8528 50.7061 12.8528C49.1329 12.8528 48.4199 14.1082 48.4199 15.9299C48.4199 17.7512 49.1329 19.0066 50.7061 19.0066V19.0066Z" fill="#111111"/>
<path d="M65.5303 10.4648H69.0946V21.3944H65.5303V19.696C64.9405 20.9269 63.7114 21.6898 62.0643 21.6898C59.1145 21.6898 58.1807 19.6715 58.1807 17.3327V10.4648H61.7202V16.471C61.7202 18.0218 62.2364 18.8835 63.5394 18.8835C64.8666 18.8835 65.5303 17.776 65.5303 16.0281L65.5303 10.4648Z" fill="#111111"/>
<path d="M74.9216 21.3944H71.3818V10.4649H74.9216V12.1632C75.5116 10.9572 76.8389 10.1694 78.4857 10.1694C81.4355 10.1694 82.4189 12.2126 82.4189 14.5512V21.3944H78.8792V15.4127C78.8792 13.8372 78.363 12.9757 77.0601 12.9757C75.6344 12.9757 74.9216 14.1081 74.9216 15.831V21.3944Z" fill="#111111"/>
<path d="M92.523 19.4499C92.0066 20.7299 90.7284 21.6899 88.8603 21.6899C85.6402 21.6899 83.9932 19.1545 83.9932 15.9298C83.9932 12.7296 85.6402 10.1695 88.8603 10.1695C90.7284 10.1695 92.0066 11.1295 92.523 12.4341V5.88631H96.0871V21.3945H92.523V19.4499ZM92.523 15.8065C92.523 14.0588 91.515 12.951 90.0648 12.951C88.3686 12.951 87.5821 14.1573 87.5821 15.9298C87.5821 17.7265 88.3686 18.9328 90.0648 18.9328C91.515 18.9328 92.523 17.8253 92.523 16.0527V15.8065Z" fill="#111111"/>
<path d="M109.044 17.8007C108.478 20.2865 106.536 21.6899 103.685 21.6899C100.219 21.6899 97.7607 19.5728 97.7607 16.1019C97.7607 12.6558 100.268 10.1695 103.611 10.1695C107.225 10.1695 109.117 12.6558 109.117 15.6344V16.7173H101.251C101.35 18.1698 102.431 19.0065 103.808 19.0065C105.037 19.0065 105.799 18.539 106.192 17.5298L109.044 17.8007ZM105.701 14.8218C105.627 13.7387 104.939 12.7541 103.586 12.7541C102.161 12.7541 101.497 13.6649 101.301 14.8218H105.701Z" fill="#111111"/>
<path d="M118.73 13.9359C118.161 13.6171 117.514 13.4636 116.862 13.4927C115.387 13.4927 114.404 14.3296 114.404 16.2253V21.3946H110.864V10.465H114.404V12.4588C114.607 11.8094 115.008 11.2397 115.55 10.8293C116.092 10.4189 116.748 10.1883 117.427 10.1696C117.97 10.1474 118.505 10.303 118.952 10.6127L118.73 13.9359Z" fill="#111111"/>
<path d="M123.795 25.3827H120.256V10.4651H123.795V12.4343C124.336 11.1297 125.59 10.1697 127.483 10.1697C130.678 10.1697 132.35 12.7297 132.35 15.93C132.35 19.1546 130.678 21.6901 127.483 21.6901C125.59 21.6901 124.336 20.7301 123.795 19.4501V25.3827ZM123.795 16.0529C123.795 17.8254 124.803 18.933 126.278 18.933C127.95 18.933 128.761 17.7267 128.761 15.93C128.761 14.1575 127.95 12.9512 126.278 12.9512C124.803 12.9512 123.795 14.0589 123.795 15.8067V16.0529Z" fill="#111111"/>
<path d="M143.952 18.4162C143.952 18.9821 144.198 19.2283 144.64 19.2283C144.955 19.2342 145.266 19.1667 145.55 19.0312V20.9271C144.882 21.4182 144.068 21.6697 143.239 21.6409C141.937 21.6409 140.978 20.9517 140.659 19.7208C140.044 20.9763 138.692 21.6409 136.996 21.6409C134.808 21.6409 133.432 20.5329 133.432 18.662C133.432 16.5699 135.005 15.6837 137.414 15.2159L140.462 14.6743V14.4774C140.462 13.4436 139.945 12.8282 138.864 12.8282C137.832 12.8282 137.315 13.4682 137.119 14.3788L133.825 14.1328C134.193 11.7942 135.939 10.1696 139.061 10.1696C141.912 10.1696 143.952 11.4496 143.952 14.4282L143.952 18.4162ZM140.462 16.5453L138.667 16.9145C137.561 17.1358 136.873 17.4066 136.873 18.2683C136.873 18.9083 137.364 19.3021 138.127 19.3021C139.429 19.3021 140.462 18.3175 140.462 16.7666V16.5453Z" fill="#111111"/>
<path d="M147.076 12.9508H145.552V10.7848L146.339 10.6616C147.42 10.4647 147.739 9.89848 148.01 8.8893L148.379 7.43677H150.566V10.4647H153.467V12.9508H150.566V17.5051C150.566 18.4405 151.009 18.8343 151.845 18.8343C152.459 18.8135 153.062 18.6624 153.615 18.3909V20.7297C152.803 21.3452 151.869 21.6897 150.444 21.6897C148.674 21.6897 147.076 20.9268 147.076 18.4651L147.076 12.9508Z" fill="#111111"/>
<path d="M158.752 21.3945H155.213V5.88623H158.752V12.1632C159.342 10.9572 160.67 10.1694 162.317 10.1694C165.267 10.1694 166.25 12.2126 166.25 14.5512V21.3945H162.71V15.4127C162.71 13.8372 162.194 12.9758 160.891 12.9758C159.465 12.9758 158.752 14.1081 158.752 15.831V21.3945Z" fill="#111111"/>
<path d="M27.2874 14.0108C27.2829 9.18477 26.4425 4.90045 24.6483 3.09905C22.8495 1.29767 19.4215 0 13.7566 0C8.09162 0 4.67102 1.29767 2.87215 3.09905C1.07347 4.90045 0 9.18477 0 14.0063V14.0109C0.00450386 18.8369 1.07703 23.1213 2.87121 24.9226C4.67009 26.724 8.098 28 13.763 28C19.4279 28 22.8485 26.724 24.6474 24.9226C26.4461 23.1213 27.2874 18.8369 27.2874 14.0154V14.0108Z" fill="#443DD8"/>
<path d="M12.9287 16.3356V16.3356C12.9287 18.047 14.3141 19.4343 16.023 19.4343H16.023C17.7319 19.4343 19.1173 18.047 19.1173 16.3356V16.3356C19.1173 14.6242 17.7319 13.2369 16.023 13.2369H16.023C14.3141 13.2369 12.9287 14.6242 12.9287 16.3356Z" fill="#B4B1EF"/>
<path d="M6.89746 7.22583V20.791H11.4128V11.7477H20.4432V7.22583H6.89746Z" fill="white"/>
</g>
<defs>
<clipPath id="clip0_8204_10182">
<rect width="166.25" height="28" fill="white"/>
</clipPath>
</defs>
</svg>
