<svg width="327" height="278" viewBox="0 0 327 278" fill="none" xmlns="http://www.w3.org/2000/svg">
<g filter="url(#filter0_ddd_8204_10272)">
<rect x="64.6821" width="196.848" height="232" rx="8" fill="white"/>
<path d="M116.273 25.1818H117.943V32.1001H116.273V25.1818ZM120.599 29.6183V32.1001H119.018V27.2244H120.599V27.9821C120.863 27.444 121.456 27.0926 122.191 27.0926C123.509 27.0926 123.948 28.0041 123.948 29.0473V32.1001H122.367V29.4316C122.367 28.7288 122.136 28.3445 121.554 28.3445C120.918 28.3445 120.599 28.8496 120.599 29.6183ZM124.575 30.5078L125.959 30.4749C126.025 30.9471 126.398 31.2106 126.991 31.2106C127.419 31.2106 127.705 31.0569 127.705 30.7933C127.705 30.5517 127.551 30.42 127.156 30.3541L126.409 30.2333C125.289 30.0576 124.685 29.6732 124.685 28.7069C124.685 27.7625 125.509 27.0926 126.815 27.0926C128.199 27.0926 129.023 27.7076 129.122 28.7508L127.815 28.7947C127.738 28.3664 127.397 28.1248 126.793 28.1248C126.398 28.1248 126.157 28.2896 126.157 28.5531C126.157 28.7508 126.31 28.8716 126.552 28.9045L127.496 29.0692C128.561 29.234 129.176 29.7062 129.176 30.6396C129.176 31.6608 128.309 32.2319 126.98 32.2319C125.662 32.2319 124.663 31.6938 124.575 30.5078ZM130.1 30.7933V28.3335H129.419V27.3671L129.77 27.3122C130.253 27.2244 130.396 26.9718 130.517 26.5216L130.682 25.8737H131.659V27.2244H132.955V28.3335H131.659V30.365C131.659 30.7823 131.857 30.958 132.23 30.958C132.472 30.958 132.724 30.8921 133.021 30.7604V31.8036C132.658 32.0781 132.241 32.2319 131.604 32.2319C130.814 32.2319 130.1 31.8915 130.1 30.7933ZM136.597 30.0356V29.9368L135.796 30.1015C135.301 30.2003 134.994 30.3211 134.994 30.7055C134.994 30.991 135.214 31.1667 135.554 31.1667C136.136 31.1667 136.597 30.7274 136.597 30.0356ZM138.157 28.9924V30.7714C138.157 31.0239 138.266 31.1337 138.464 31.1337C138.607 31.1337 138.728 31.1118 138.87 31.0459V31.8915C138.629 32.0672 138.321 32.2099 137.838 32.2099C137.256 32.2099 136.828 31.9024 136.685 31.3534C136.41 31.9134 135.807 32.2099 135.049 32.2099C134.071 32.2099 133.457 31.7158 133.457 30.8812C133.457 29.9478 134.159 29.5524 135.235 29.3438L136.597 29.1022V29.0143C136.597 28.5531 136.367 28.2786 135.883 28.2786C135.422 28.2786 135.192 28.5641 135.104 28.9704L133.632 28.8606C133.797 27.8174 134.577 27.0926 135.971 27.0926C137.245 27.0926 138.157 27.6636 138.157 28.9924ZM141.007 29.6183V32.1001H139.425V27.2244H141.007V27.9821C141.27 27.444 141.863 27.0926 142.599 27.0926C143.917 27.0926 144.356 28.0041 144.356 29.0473V32.1001H142.775V29.4316C142.775 28.7288 142.544 28.3445 141.962 28.3445C141.325 28.3445 141.007 28.8496 141.007 29.6183ZM145.51 30.7933V28.3335H144.829V27.3671L145.181 27.3122C145.664 27.2244 145.807 26.9718 145.927 26.5216L146.092 25.8737H147.069V27.2244H148.365V28.3335H147.069V30.365C147.069 30.7823 147.267 30.958 147.64 30.958C147.882 30.958 148.135 30.8921 148.431 30.7604V31.8036C148.069 32.0781 147.651 32.2319 147.015 32.2319C146.224 32.2319 145.51 31.8915 145.51 30.7933ZM150.851 28.641C150.851 26.5106 152.366 25.0501 154.365 25.0501C156.452 25.0501 157.583 26.3678 157.703 28.1029L156.111 28.1688C156.012 27.2903 155.507 26.5216 154.354 26.5216C153.245 26.5216 152.564 27.3452 152.564 28.641C152.564 29.9368 153.245 30.7604 154.354 30.7604C155.507 30.7604 156.012 29.9917 156.111 29.1132L157.703 29.1791C157.583 30.9141 156.452 32.2319 154.365 32.2319C152.366 32.2319 150.851 30.7714 150.851 28.641ZM161.316 30.0356V29.9368L160.514 30.1015C160.02 30.2003 159.713 30.3211 159.713 30.7055C159.713 30.991 159.932 31.1667 160.273 31.1667C160.855 31.1667 161.316 30.7274 161.316 30.0356ZM162.875 28.9924V30.7714C162.875 31.0239 162.985 31.1337 163.183 31.1337C163.326 31.1337 163.446 31.1118 163.589 31.0459V31.8915C163.347 32.0672 163.04 32.2099 162.557 32.2099C161.975 32.2099 161.547 31.9024 161.404 31.3534C161.129 31.9134 160.525 32.2099 159.768 32.2099C158.79 32.2099 158.175 31.7158 158.175 30.8812C158.175 29.9478 158.878 29.5524 159.954 29.3438L161.316 29.1022V29.0143C161.316 28.5531 161.085 28.2786 160.602 28.2786C160.141 28.2786 159.91 28.5641 159.822 28.9704L158.351 28.8606C158.516 27.8174 159.295 27.0926 160.69 27.0926C161.964 27.0926 162.875 27.6636 162.875 28.9924ZM165.726 29.6073V29.7171C165.726 30.5078 166.176 31.002 166.835 31.002C167.581 31.002 167.944 30.4639 167.944 29.6622C167.944 28.8716 167.581 28.3335 166.835 28.3335C166.176 28.3335 165.726 28.8277 165.726 29.6073ZM165.726 31.2326V33.8791H164.144V27.2244H165.726V28.1029C165.967 27.5209 166.527 27.0926 167.373 27.0926C168.8 27.0926 169.547 28.2347 169.547 29.6622C169.547 31.1008 168.8 32.2319 167.373 32.2319C166.527 32.2319 165.967 31.8036 165.726 31.2326ZM170.3 27.2244H171.881V32.1001H170.3V27.2244ZM170.289 26.6314V25.1818H171.903V26.6314H170.289ZM173.092 30.7933V28.3335H172.411V27.3671L172.763 27.3122C173.246 27.2244 173.389 26.9718 173.509 26.5216L173.674 25.8737H174.652V27.2244H175.947V28.3335H174.652V30.365C174.652 30.7823 174.849 30.958 175.223 30.958C175.464 30.958 175.717 30.8921 176.013 30.7604V31.8036C175.651 32.0781 175.234 32.2319 174.597 32.2319C173.806 32.2319 173.092 31.8915 173.092 30.7933ZM179.59 30.0356V29.9368L178.788 30.1015C178.294 30.2003 177.986 30.3211 177.986 30.7055C177.986 30.991 178.206 31.1667 178.546 31.1667C179.128 31.1667 179.59 30.7274 179.59 30.0356ZM181.149 28.9924V30.7714C181.149 31.0239 181.259 31.1337 181.456 31.1337C181.599 31.1337 181.72 31.1118 181.863 31.0459V31.8915C181.621 32.0672 181.314 32.2099 180.831 32.2099C180.248 32.2099 179.82 31.9024 179.677 31.3534C179.403 31.9134 178.799 32.2099 178.041 32.2099C177.064 32.2099 176.449 31.7158 176.449 30.8812C176.449 29.9478 177.152 29.5524 178.228 29.3438L179.59 29.1022V29.0143C179.59 28.5531 179.359 28.2786 178.876 28.2786C178.415 28.2786 178.184 28.5641 178.096 28.9704L176.625 28.8606C176.789 27.8174 177.569 27.0926 178.964 27.0926C180.238 27.0926 181.149 27.6636 181.149 28.9924ZM182.418 25.1818H183.999V32.1001H182.418V25.1818ZM193.849 28.641C193.849 30.7714 192.312 32.2319 190.291 32.2319C188.282 32.2319 186.744 30.7714 186.744 28.641C186.744 26.5106 188.282 25.0501 190.291 25.0501C192.312 25.0501 193.849 26.5106 193.849 28.641ZM192.136 28.641C192.136 27.3562 191.422 26.5106 190.291 26.5106C189.171 26.5106 188.457 27.3562 188.457 28.641C188.457 29.9258 189.171 30.7714 190.291 30.7714C191.422 30.7714 192.136 29.9258 192.136 28.641ZM198.1 28.3335H196.529V32.1001H194.959V28.3335H194.245V27.2244H194.959V26.9608C194.959 25.8188 195.585 25.1599 196.683 25.1599C197.298 25.1599 197.638 25.3136 197.968 25.5113L197.649 26.4996C197.485 26.4008 197.265 26.3129 197.045 26.3129C196.683 26.3129 196.529 26.5435 196.529 26.9059V27.2244H198.1V27.0487C198.1 25.7858 198.846 25.0501 199.988 25.0501C200.889 25.0501 201.482 25.4893 201.69 26.291L200.702 26.5984C200.592 26.3459 200.428 26.1921 200.153 26.1921C199.813 26.1921 199.67 26.4557 199.67 26.8181V27.2244H200.933V28.3335H199.67V32.1001H198.1V28.3335ZM204.859 30.376L206.133 30.4968C205.881 31.6059 205.013 32.2319 203.739 32.2319C202.191 32.2319 201.093 31.2875 201.093 29.7391C201.093 28.2017 202.213 27.0926 203.706 27.0926C205.32 27.0926 206.166 28.2017 206.166 29.5305V30.0136H202.652C202.696 30.6615 203.179 31.0349 203.794 31.0349C204.343 31.0349 204.684 30.8263 204.859 30.376ZM202.674 29.1681H204.64C204.607 28.6849 204.299 28.2456 203.695 28.2456C203.058 28.2456 202.762 28.652 202.674 29.1681ZM210.557 27.2903L210.458 28.7727C210.205 28.63 209.964 28.5751 209.623 28.5751C208.964 28.5751 208.525 28.9484 208.525 29.794V32.1001H206.944V27.2244H208.525V28.1139C208.712 27.5648 209.217 27.0926 209.876 27.0926C210.172 27.0926 210.425 27.1805 210.557 27.2903Z" fill="#111111"/>
<path d="M110.388 65.799V47.3356H111.571V65.799H110.388ZM114.37 52.8746C114.283 52.1437 113.932 51.5764 113.317 51.1725C112.701 50.7686 111.946 50.5667 111.052 50.5667C110.398 50.5667 109.826 50.6724 109.335 50.884C108.85 51.0956 108.47 51.3864 108.196 51.7567C107.927 52.1269 107.792 52.5476 107.792 53.0188C107.792 53.4131 107.886 53.7521 108.073 54.0358C108.266 54.3146 108.511 54.5478 108.809 54.7353C109.107 54.9181 109.42 55.0695 109.746 55.1897C110.073 55.3051 110.374 55.3989 110.648 55.471L112.148 55.8749C112.533 55.9759 112.961 56.1153 113.432 56.2932C113.908 56.4711 114.362 56.7139 114.795 57.0216C115.233 57.3246 115.593 57.714 115.877 58.19C116.161 58.666 116.302 59.2502 116.302 59.9426C116.302 60.7408 116.093 61.462 115.675 62.1063C115.261 62.7506 114.656 63.2627 113.857 63.6425C113.064 64.0224 112.1 64.2123 110.965 64.2123C109.908 64.2123 108.992 64.0416 108.217 63.7002C107.448 63.3588 106.842 62.8828 106.4 62.2722C105.962 61.6615 105.715 60.9523 105.657 60.1446H107.503C107.552 60.7023 107.739 61.1639 108.066 61.5293C108.398 61.8899 108.816 62.1592 109.321 62.3371C109.831 62.5102 110.379 62.5967 110.965 62.5967C111.648 62.5967 112.261 62.4861 112.804 62.265C113.348 62.039 113.778 61.7264 114.095 61.3274C114.413 60.9235 114.571 60.4523 114.571 59.9138C114.571 59.4233 114.434 59.0242 114.16 58.7165C113.886 58.4088 113.526 58.1588 113.079 57.9664C112.631 57.7741 112.148 57.6058 111.629 57.4616L109.811 56.9423C108.657 56.6105 107.744 56.1369 107.071 55.5215C106.398 54.906 106.061 54.1007 106.061 53.1054C106.061 52.2784 106.285 51.5571 106.732 50.9417C107.184 50.3214 107.79 49.8406 108.549 49.4992C109.314 49.153 110.167 48.98 111.11 48.98C112.062 48.98 112.908 49.1506 113.648 49.492C114.389 49.8286 114.975 50.2902 115.408 50.8768C115.846 51.4634 116.076 52.1293 116.1 52.8746H114.37ZM125.078 49.1819V63.9526H121.955V52.1461H121.869L118.486 54.2666V51.497L122.143 49.1819H125.078ZM131.163 61.9332L131.084 62.7266C131.021 63.3612 130.901 63.9935 130.723 64.6234C130.55 65.2581 130.368 65.8326 130.175 66.3471C129.988 66.8616 129.836 67.2655 129.721 67.5588H127.73C127.802 67.2751 127.901 66.8784 128.026 66.3687C128.151 65.8639 128.269 65.2965 128.379 64.6667C128.49 64.0368 128.56 63.3949 128.589 62.741L128.625 61.9332H131.163ZM139.14 64.2772C137.9 64.2724 136.832 63.9671 135.938 63.3612C135.048 62.7554 134.363 61.8779 133.882 60.7288C133.406 59.5796 133.171 58.1972 133.176 56.5817C133.176 54.971 133.414 53.5982 133.89 52.4635C134.37 51.3288 135.056 50.4657 135.945 49.8743C136.839 49.2781 137.904 48.98 139.14 48.98C140.376 48.98 141.438 49.2781 142.328 49.8743C143.222 50.4705 143.91 51.336 144.391 52.4707C144.871 53.6006 145.109 54.971 145.105 56.5817C145.105 58.202 144.864 59.5868 144.383 60.736C143.907 61.8851 143.225 62.7626 142.335 63.3684C141.446 63.9743 140.381 64.2772 139.14 64.2772ZM139.14 61.688C139.986 61.688 140.662 61.2625 141.167 60.4114C141.672 59.5604 141.922 58.2838 141.917 56.5817C141.917 55.4614 141.801 54.5286 141.571 53.7833C141.345 53.0381 141.022 52.4779 140.604 52.1029C140.191 51.7278 139.703 51.5403 139.14 51.5403C138.299 51.5403 137.626 51.961 137.121 52.8025C136.616 53.6439 136.361 54.9036 136.356 56.5817C136.356 57.7164 136.469 58.6636 136.695 59.4233C136.926 60.1782 137.25 60.7456 137.669 61.1254C138.087 61.5005 138.578 61.688 139.14 61.688ZM153.123 64.2772C151.882 64.2724 150.815 63.9671 149.921 63.3612C149.031 62.7554 148.346 61.8779 147.865 60.7288C147.389 59.5796 147.154 58.1972 147.158 56.5817C147.158 54.971 147.396 53.5982 147.872 52.4635C148.353 51.3288 149.038 50.4657 149.928 49.8743C150.822 49.2781 151.887 48.98 153.123 48.98C154.359 48.98 155.421 49.2781 156.311 49.8743C157.205 50.4705 157.893 51.336 158.373 52.4707C158.854 53.6006 159.092 54.971 159.087 56.5817C159.087 58.202 158.847 59.5868 158.366 60.736C157.89 61.8851 157.207 62.7626 156.318 63.3684C155.428 63.9743 154.363 64.2772 153.123 64.2772ZM153.123 61.688C153.969 61.688 154.645 61.2625 155.15 60.4114C155.654 59.5604 155.904 58.2838 155.9 56.5817C155.9 55.4614 155.784 54.5286 155.553 53.7833C155.327 53.0381 155.005 52.4779 154.587 52.1029C154.173 51.7278 153.685 51.5403 153.123 51.5403C152.281 51.5403 151.608 51.961 151.103 52.8025C150.599 53.6439 150.344 54.9036 150.339 56.5817C150.339 57.7164 150.452 58.6636 150.678 59.4233C150.909 60.1782 151.233 60.7456 151.652 61.1254C152.07 61.5005 152.56 61.688 153.123 61.688ZM167.106 64.2772C165.865 64.2724 164.798 63.9671 163.903 63.3612C163.014 62.7554 162.329 61.8779 161.848 60.7288C161.372 59.5796 161.136 58.1972 161.141 56.5817C161.141 54.971 161.379 53.5982 161.855 52.4635C162.336 51.3288 163.021 50.4657 163.911 49.8743C164.805 49.2781 165.87 48.98 167.106 48.98C168.341 48.98 169.404 49.2781 170.294 49.8743C171.188 50.4705 171.875 51.336 172.356 52.4707C172.837 53.6006 173.075 54.971 173.07 56.5817C173.07 58.202 172.83 59.5868 172.349 60.736C171.873 61.8851 171.19 62.7626 170.301 63.3684C169.411 63.9743 168.346 64.2772 167.106 64.2772ZM167.106 61.688C167.952 61.688 168.627 61.2625 169.132 60.4114C169.637 59.5604 169.887 58.2838 169.882 56.5817C169.882 55.4614 169.767 54.5286 169.536 53.7833C169.31 53.0381 168.988 52.4779 168.57 52.1029C168.156 51.7278 167.668 51.5403 167.106 51.5403C166.264 51.5403 165.591 51.961 165.086 52.8025C164.581 53.6439 164.327 54.9036 164.322 56.5817C164.322 57.7164 164.435 58.6636 164.661 59.4233C164.892 60.1782 165.216 60.7456 165.634 61.1254C166.053 61.5005 166.543 61.688 167.106 61.688ZM178.07 61.9332L177.991 62.7266C177.928 63.3612 177.808 63.9935 177.63 64.6234C177.457 65.2581 177.274 65.8326 177.082 66.3471C176.895 66.8616 176.743 67.2655 176.628 67.5588H174.637C174.709 67.2751 174.808 66.8784 174.933 66.3687C175.058 65.8639 175.176 65.2965 175.286 64.6667C175.397 64.0368 175.467 63.3949 175.495 62.741L175.531 61.9332H178.07ZM186.047 64.2772C184.806 64.2724 183.739 63.9671 182.845 63.3612C181.955 62.7554 181.27 61.8779 180.789 60.7288C180.313 59.5796 180.078 58.1972 180.082 56.5817C180.082 54.971 180.32 53.5982 180.796 52.4635C181.277 51.3288 181.962 50.4657 182.852 49.8743C183.746 49.2781 184.811 48.98 186.047 48.98C187.283 48.98 188.345 49.2781 189.235 49.8743C190.129 50.4705 190.817 51.336 191.297 52.4707C191.778 53.6006 192.016 54.971 192.011 56.5817C192.011 58.202 191.771 59.5868 191.29 60.736C190.814 61.8851 190.131 62.7626 189.242 63.3684C188.352 63.9743 187.287 64.2772 186.047 64.2772ZM186.047 61.688C186.893 61.688 187.569 61.2625 188.074 60.4114C188.578 59.5604 188.828 58.2838 188.824 56.5817C188.824 55.4614 188.708 54.5286 188.477 53.7833C188.251 53.0381 187.929 52.4779 187.511 52.1029C187.098 51.7278 186.609 51.5403 186.047 51.5403C185.205 51.5403 184.532 51.961 184.027 52.8025C183.523 53.6439 183.268 54.9036 183.263 56.5817C183.263 57.7164 183.376 58.6636 183.602 59.4233C183.833 60.1782 184.157 60.7456 184.576 61.1254C184.994 61.5005 185.484 61.688 186.047 61.688ZM200.03 64.2772C198.789 64.2724 197.722 63.9671 196.827 63.3612C195.938 62.7554 195.253 61.8779 194.772 60.7288C194.296 59.5796 194.06 58.1972 194.065 56.5817C194.065 54.971 194.303 53.5982 194.779 52.4635C195.26 51.3288 195.945 50.4657 196.835 49.8743C197.729 49.2781 198.794 48.98 200.03 48.98C201.265 48.98 202.328 49.2781 203.218 49.8743C204.112 50.4705 204.799 51.336 205.28 52.4707C205.761 53.6006 205.999 54.971 205.994 56.5817C205.994 58.202 205.754 59.5868 205.273 60.736C204.797 61.8851 204.114 62.7626 203.225 63.3684C202.335 63.9743 201.27 64.2772 200.03 64.2772ZM200.03 61.688C200.876 61.688 201.552 61.2625 202.056 60.4114C202.561 59.5604 202.811 58.2838 202.806 56.5817C202.806 55.4614 202.691 54.5286 202.46 53.7833C202.234 53.0381 201.912 52.4779 201.494 52.1029C201.08 51.7278 200.592 51.5403 200.03 51.5403C199.188 51.5403 198.515 51.961 198.01 52.8025C197.505 53.6439 197.251 54.9036 197.246 56.5817C197.246 57.7164 197.359 58.6636 197.585 59.4233C197.816 60.1782 198.14 60.7456 198.558 61.1254C198.977 61.5005 199.467 61.688 200.03 61.688ZM214.013 64.2772C212.772 64.2724 211.705 63.9671 210.81 63.3612C209.921 62.7554 209.236 61.8779 208.755 60.7288C208.279 59.5796 208.043 58.1972 208.048 56.5817C208.048 54.971 208.286 53.5982 208.762 52.4635C209.243 51.3288 209.928 50.4657 210.817 49.8743C211.712 49.2781 212.777 48.98 214.013 48.98C215.248 48.98 216.311 49.2781 217.2 49.8743C218.095 50.4705 218.782 51.336 219.263 52.4707C219.744 53.6006 219.982 54.971 219.977 56.5817C219.977 58.202 219.737 59.5868 219.256 60.736C218.78 61.8851 218.097 62.7626 217.208 63.3684C216.318 63.9743 215.253 64.2772 214.013 64.2772ZM214.013 61.688C214.859 61.688 215.534 61.2625 216.039 60.4114C216.544 59.5604 216.794 58.2838 216.789 56.5817C216.789 55.4614 216.674 54.5286 216.443 53.7833C216.217 53.0381 215.895 52.4779 215.477 52.1029C215.063 51.7278 214.575 51.5403 214.013 51.5403C213.171 51.5403 212.498 51.961 211.993 52.8025C211.488 53.6439 211.233 54.9036 211.229 56.5817C211.229 57.7164 211.342 58.6636 211.568 59.4233C211.798 60.1782 212.123 60.7456 212.541 61.1254C212.96 61.5005 213.45 61.688 214.013 61.688Z" fill="#111111"/>
<rect x="81.6318" y="96.4543" width="162.98" height="2.60768" rx="1.30384" fill="#CFD4DF"/>
<rect x="81.6318" y="96.4543" width="79.5343" height="2.60768" rx="1.30384" fill="#443DD8"/>
<g filter="url(#filter1_ddi_8204_10272)">
<rect x="160.514" y="94.8268" width="5.56605" height="5.56605" rx="2.78303" fill="#443DD8"/>
<rect x="159.471" y="93.7831" width="7.65332" height="7.65332" rx="3.82666" stroke="white" stroke-width="2.08727"/>
</g>
<path d="M196.039 121.564V113.342H196.566V121.564H196.039ZM197.687 115.892C197.652 115.588 197.511 115.352 197.263 115.185C197.014 115.016 196.702 114.932 196.325 114.932C196.055 114.932 195.822 114.974 195.625 115.06C195.428 115.144 195.274 115.259 195.165 115.407C195.058 115.553 195.005 115.718 195.005 115.905C195.005 116.061 195.041 116.196 195.114 116.309C195.189 116.423 195.286 116.518 195.406 116.595C195.528 116.67 195.659 116.733 195.798 116.785C195.937 116.834 196.071 116.875 196.199 116.907L196.842 117.074C197.052 117.125 197.267 117.195 197.487 117.283C197.708 117.37 197.912 117.486 198.101 117.63C198.289 117.773 198.441 117.951 198.557 118.163C198.675 118.375 198.734 118.628 198.734 118.924C198.734 119.297 198.637 119.627 198.445 119.916C198.254 120.206 197.977 120.434 197.613 120.601C197.251 120.768 196.813 120.851 196.299 120.851C195.807 120.851 195.38 120.773 195.021 120.617C194.661 120.46 194.379 120.239 194.176 119.952C193.972 119.663 193.86 119.32 193.839 118.924H194.834C194.854 119.162 194.931 119.36 195.066 119.518C195.203 119.675 195.377 119.791 195.589 119.868C195.803 119.943 196.038 119.981 196.293 119.981C196.573 119.981 196.823 119.937 197.041 119.849C197.262 119.759 197.435 119.635 197.561 119.476C197.688 119.316 197.751 119.128 197.751 118.914C197.751 118.719 197.695 118.56 197.584 118.436C197.475 118.312 197.326 118.209 197.137 118.127C196.951 118.046 196.74 117.974 196.505 117.912L195.727 117.7C195.201 117.557 194.783 117.346 194.475 117.067C194.168 116.789 194.015 116.421 194.015 115.963C194.015 115.584 194.118 115.253 194.324 114.97C194.529 114.687 194.808 114.468 195.159 114.312C195.51 114.153 195.906 114.074 196.347 114.074C196.793 114.074 197.186 114.152 197.526 114.308C197.869 114.465 198.138 114.68 198.335 114.954C198.532 115.226 198.635 115.539 198.644 115.892H197.687ZM199.83 120.742V120.022L202.056 117.716C202.293 117.466 202.489 117.246 202.643 117.058C202.8 116.867 202.916 116.686 202.994 116.515C203.071 116.344 203.109 116.162 203.109 115.969C203.109 115.751 203.058 115.562 202.955 115.404C202.852 115.243 202.712 115.12 202.534 115.034C202.356 114.947 202.156 114.903 201.934 114.903C201.698 114.903 201.492 114.951 201.317 115.047C201.141 115.144 201.006 115.279 200.912 115.455C200.818 115.631 200.771 115.836 200.771 116.072H199.823C199.823 115.671 199.915 115.321 200.1 115.021C200.284 114.722 200.536 114.489 200.858 114.324C201.179 114.157 201.544 114.074 201.953 114.074C202.366 114.074 202.73 114.156 203.045 114.321C203.362 114.484 203.609 114.707 203.787 114.989C203.965 115.27 204.053 115.587 204.053 115.94C204.053 116.184 204.007 116.423 203.915 116.656C203.825 116.89 203.668 117.15 203.443 117.437C203.218 117.722 202.906 118.067 202.505 118.474L201.198 119.843V119.891H204.159V120.742H199.83ZM206.639 119.843L206.591 120.193C206.559 120.45 206.504 120.717 206.427 120.996C206.352 121.276 206.274 121.536 206.193 121.776C206.113 122.016 206.048 122.207 205.997 122.348H205.316C205.344 122.215 205.382 122.035 205.431 121.808C205.481 121.583 205.529 121.332 205.576 121.054C205.623 120.775 205.658 120.491 205.682 120.202L205.714 119.843H206.639ZM210.034 120.851C209.527 120.849 209.093 120.715 208.733 120.45C208.374 120.184 208.098 119.798 207.908 119.29C207.717 118.783 207.622 118.171 207.622 117.456C207.622 116.743 207.717 116.134 207.908 115.629C208.1 115.123 208.377 114.738 208.736 114.472C209.098 114.207 209.531 114.074 210.034 114.074C210.537 114.074 210.969 114.208 211.329 114.475C211.688 114.741 211.963 115.126 212.154 115.632C212.347 116.135 212.443 116.743 212.443 117.456C212.443 118.173 212.348 118.786 212.157 119.293C211.967 119.799 211.691 120.185 211.332 120.453C210.972 120.718 210.539 120.851 210.034 120.851ZM210.034 119.994C210.479 119.994 210.827 119.776 211.078 119.342C211.331 118.907 211.457 118.278 211.457 117.456C211.457 116.91 211.399 116.449 211.284 116.072C211.17 115.693 211.006 115.406 210.792 115.211C210.58 115.014 210.327 114.915 210.034 114.915C209.591 114.915 209.243 115.134 208.99 115.571C208.738 116.008 208.61 116.636 208.608 117.456C208.608 118.004 208.665 118.468 208.778 118.847C208.894 119.224 209.058 119.51 209.27 119.704C209.482 119.897 209.736 119.994 210.034 119.994ZM215.873 120.851C215.365 120.849 214.931 120.715 214.572 120.45C214.212 120.184 213.937 119.798 213.746 119.29C213.556 118.783 213.46 118.171 213.46 117.456C213.46 116.743 213.556 116.134 213.746 115.629C213.939 115.123 214.215 114.738 214.575 114.472C214.937 114.207 215.369 114.074 215.873 114.074C216.376 114.074 216.807 114.208 217.167 114.475C217.527 114.741 217.802 115.126 217.992 115.632C218.185 116.135 218.282 116.743 218.282 117.456C218.282 118.173 218.186 118.786 217.996 119.293C217.805 119.799 217.53 120.185 217.17 120.453C216.81 120.718 216.378 120.851 215.873 120.851ZM215.873 119.994C216.318 119.994 216.666 119.776 216.916 119.342C217.169 118.907 217.295 118.278 217.295 117.456C217.295 116.91 217.238 116.449 217.122 116.072C217.009 115.693 216.845 115.406 216.631 115.211C216.419 115.014 216.166 114.915 215.873 114.915C215.429 114.915 215.081 115.134 214.829 115.571C214.576 116.008 214.449 116.636 214.446 117.456C214.446 118.004 214.503 118.468 214.617 118.847C214.732 119.224 214.896 119.51 215.108 119.704C215.32 119.897 215.575 119.994 215.873 119.994ZM221.711 120.851C221.204 120.849 220.77 120.715 220.41 120.45C220.051 120.184 219.775 119.798 219.585 119.29C219.394 118.783 219.299 118.171 219.299 117.456C219.299 116.743 219.394 116.134 219.585 115.629C219.778 115.123 220.054 114.738 220.413 114.472C220.775 114.207 221.208 114.074 221.711 114.074C222.214 114.074 222.646 114.208 223.006 114.475C223.365 114.741 223.64 115.126 223.831 115.632C224.024 116.135 224.12 116.743 224.12 117.456C224.12 118.173 224.025 118.786 223.834 119.293C223.644 119.799 223.368 120.185 223.009 120.453C222.649 120.718 222.216 120.851 221.711 120.851ZM221.711 119.994C222.156 119.994 222.504 119.776 222.755 119.342C223.008 118.907 223.134 118.278 223.134 117.456C223.134 116.91 223.076 116.449 222.961 116.072C222.847 115.693 222.683 115.406 222.469 115.211C222.257 115.014 222.004 114.915 221.711 114.915C221.268 114.915 220.92 115.134 220.667 115.571C220.415 116.008 220.287 116.636 220.285 117.456C220.285 118.004 220.342 118.468 220.455 118.847C220.571 119.224 220.735 119.51 220.947 119.704C221.159 119.897 221.413 119.994 221.711 119.994ZM226.283 119.843L226.235 120.193C226.203 120.45 226.148 120.717 226.071 120.996C225.996 121.276 225.918 121.536 225.837 121.776C225.758 122.016 225.692 122.207 225.641 122.348H224.96C224.988 122.215 225.026 122.035 225.076 121.808C225.125 121.583 225.173 121.332 225.22 121.054C225.267 120.775 225.303 120.491 225.326 120.202L225.358 119.843H226.283ZM229.678 120.851C229.171 120.849 228.737 120.715 228.377 120.45C228.018 120.184 227.743 119.798 227.552 119.29C227.361 118.783 227.266 118.171 227.266 117.456C227.266 116.743 227.361 116.134 227.552 115.629C227.745 115.123 228.021 114.738 228.381 114.472C228.743 114.207 229.175 114.074 229.678 114.074C230.182 114.074 230.613 114.208 230.973 114.475C231.332 114.741 231.608 115.126 231.798 115.632C231.991 116.135 232.087 116.743 232.087 117.456C232.087 118.173 231.992 118.786 231.801 119.293C231.611 119.799 231.336 120.185 230.976 120.453C230.616 120.718 230.184 120.851 229.678 120.851ZM229.678 119.994C230.124 119.994 230.472 119.776 230.722 119.342C230.975 118.907 231.101 118.278 231.101 117.456C231.101 116.91 231.043 116.449 230.928 116.072C230.814 115.693 230.65 115.406 230.436 115.211C230.224 115.014 229.972 114.915 229.678 114.915C229.235 114.915 228.887 115.134 228.634 115.571C228.382 116.008 228.254 116.636 228.252 117.456C228.252 118.004 228.309 118.468 228.422 118.847C228.538 119.224 228.702 119.51 228.914 119.704C229.126 119.897 229.381 119.994 229.678 119.994ZM235.517 120.851C235.009 120.849 234.576 120.715 234.216 120.45C233.856 120.184 233.581 119.798 233.391 119.29C233.2 118.783 233.105 118.171 233.105 117.456C233.105 116.743 233.2 116.134 233.391 115.629C233.583 115.123 233.859 114.738 234.219 114.472C234.581 114.207 235.014 114.074 235.517 114.074C236.02 114.074 236.452 114.208 236.811 114.475C237.171 114.741 237.446 115.126 237.637 115.632C237.829 116.135 237.926 116.743 237.926 117.456C237.926 118.173 237.831 118.786 237.64 119.293C237.449 119.799 237.174 120.185 236.814 120.453C236.455 120.718 236.022 120.851 235.517 120.851ZM235.517 119.994C235.962 119.994 236.31 119.776 236.561 119.342C236.813 118.907 236.94 118.278 236.94 117.456C236.94 116.91 236.882 116.449 236.766 116.072C236.653 115.693 236.489 115.406 236.275 115.211C236.063 115.014 235.81 114.915 235.517 114.915C235.074 114.915 234.726 115.134 234.473 115.571C234.22 116.008 234.093 116.636 234.091 117.456C234.091 118.004 234.147 118.468 234.261 118.847C234.377 119.224 234.54 119.51 234.752 119.704C234.964 119.897 235.219 119.994 235.517 119.994ZM241.355 120.851C240.848 120.849 240.414 120.715 240.055 120.45C239.695 120.184 239.42 119.798 239.229 119.29C239.038 118.783 238.943 118.171 238.943 117.456C238.943 116.743 239.038 116.134 239.229 115.629C239.422 115.123 239.698 114.738 240.058 114.472C240.42 114.207 240.852 114.074 241.355 114.074C241.859 114.074 242.29 114.208 242.65 114.475C243.01 114.741 243.285 115.126 243.475 115.632C243.668 116.135 243.764 116.743 243.764 117.456C243.764 118.173 243.669 118.786 243.478 119.293C243.288 119.799 243.013 120.185 242.653 120.453C242.293 120.718 241.861 120.851 241.355 120.851ZM241.355 119.994C241.801 119.994 242.149 119.776 242.399 119.342C242.652 118.907 242.778 118.278 242.778 117.456C242.778 116.91 242.72 116.449 242.605 116.072C242.491 115.693 242.328 115.406 242.113 115.211C241.901 115.014 241.649 114.915 241.355 114.915C240.912 114.915 240.564 115.134 240.311 115.571C240.059 116.008 239.931 116.636 239.929 117.456C239.929 118.004 239.986 118.468 240.099 118.847C240.215 119.224 240.379 119.51 240.591 119.704C240.803 119.897 241.058 119.994 241.355 119.994Z" fill="#707789"/>
<path d="M84.3032 120.851C83.7958 120.849 83.3621 120.715 83.0024 120.45C82.6427 120.184 82.3675 119.798 82.1769 119.29C81.9864 118.783 81.8911 118.171 81.8911 117.456C81.8911 116.743 81.9864 116.134 82.1769 115.629C82.3696 115.123 82.6459 114.738 83.0056 114.472C83.3675 114.207 83.8 114.074 84.3032 114.074C84.8064 114.074 85.2379 114.208 85.5977 114.475C85.9574 114.741 86.2325 115.126 86.4231 115.632C86.6158 116.135 86.7122 116.743 86.7122 117.456C86.7122 118.173 86.6169 118.786 86.4263 119.293C86.2358 119.799 85.9606 120.185 85.6009 120.453C85.2411 120.718 84.8086 120.851 84.3032 120.851ZM84.3032 119.994C84.7486 119.994 85.0966 119.776 85.3471 119.342C85.5998 118.907 85.7261 118.278 85.7261 117.456C85.7261 116.91 85.6683 116.449 85.5527 116.072C85.4392 115.693 85.2754 115.406 85.0613 115.211C84.8493 115.014 84.5966 114.915 84.3032 114.915C83.86 114.915 83.512 115.134 83.2594 115.571C83.0067 116.008 82.8793 116.636 82.8771 117.456C82.8771 118.004 82.9339 118.468 83.0474 118.847C83.163 119.224 83.3268 119.51 83.5388 119.704C83.7508 119.897 84.0056 119.994 84.3032 119.994Z" fill="#707789"/>
<path d="M92.949 145.913V145.207H97.8826V145.913H95.8141V151.785H95.0175V145.913H92.949ZM100.298 151.888C99.8526 151.888 99.4618 151.782 99.1256 151.57C98.7916 151.358 98.5303 151.061 98.3419 150.68C98.1556 150.299 98.0624 149.853 98.0624 149.344C98.0624 148.83 98.1556 148.381 98.3419 147.998C98.5303 147.615 98.7916 147.317 99.1256 147.105C99.4618 146.893 99.8526 146.787 100.298 146.787C100.743 146.787 101.133 146.893 101.467 147.105C101.803 147.317 102.065 147.615 102.251 147.998C102.439 148.381 102.533 148.83 102.533 149.344C102.533 149.853 102.439 150.299 102.251 150.68C102.065 151.061 101.803 151.358 101.467 151.57C101.133 151.782 100.743 151.888 100.298 151.888ZM100.298 151.207C100.636 151.207 100.915 151.12 101.133 150.946C101.351 150.773 101.513 150.545 101.618 150.262C101.723 149.98 101.775 149.673 101.775 149.344C101.775 149.014 101.723 148.707 101.618 148.422C101.513 148.137 101.351 147.907 101.133 147.731C100.915 147.556 100.636 147.468 100.298 147.468C99.9596 147.468 99.6813 147.556 99.4629 147.731C99.2444 147.907 99.0828 148.137 98.9778 148.422C98.8729 148.707 98.8205 149.014 98.8205 149.344C98.8205 149.673 98.8729 149.98 98.9778 150.262C99.0828 150.545 99.2444 150.773 99.4629 150.946C99.6813 151.12 99.9596 151.207 100.298 151.207ZM105.836 146.851V147.494H103.279V146.851H105.836ZM104.025 145.669H104.783V150.372C104.783 150.586 104.814 150.746 104.876 150.853C104.94 150.958 105.021 151.029 105.12 151.065C105.221 151.1 105.327 151.117 105.438 151.117C105.521 151.117 105.59 151.112 105.643 151.104C105.697 151.093 105.74 151.085 105.772 151.078L105.926 151.759C105.875 151.778 105.803 151.798 105.711 151.817C105.619 151.838 105.502 151.849 105.361 151.849C105.147 151.849 104.937 151.803 104.731 151.711C104.528 151.619 104.359 151.479 104.224 151.29C104.091 151.102 104.025 150.864 104.025 150.577V145.669ZM108.428 151.9C108.116 151.9 107.832 151.842 107.577 151.724C107.322 151.604 107.12 151.431 106.97 151.207C106.82 150.98 106.745 150.706 106.745 150.384C106.745 150.102 106.801 149.873 106.912 149.697C107.024 149.519 107.172 149.38 107.359 149.279C107.545 149.179 107.75 149.104 107.975 149.055C108.202 149.003 108.43 148.963 108.659 148.933C108.959 148.894 109.202 148.865 109.389 148.846C109.577 148.824 109.714 148.789 109.8 148.74C109.887 148.691 109.931 148.605 109.931 148.483V148.457C109.931 148.14 109.845 147.894 109.671 147.718C109.5 147.543 109.24 147.455 108.891 147.455C108.529 147.455 108.245 147.534 108.04 147.693C107.834 147.851 107.689 148.02 107.606 148.2L106.886 147.943C107.015 147.644 107.186 147.41 107.4 147.243C107.617 147.074 107.852 146.956 108.107 146.89C108.364 146.821 108.617 146.787 108.865 146.787C109.023 146.787 109.205 146.806 109.411 146.845C109.619 146.881 109.819 146.957 110.012 147.073C110.207 147.188 110.368 147.363 110.497 147.596C110.625 147.83 110.689 148.142 110.689 148.534V151.785H109.931V151.117H109.893C109.841 151.224 109.756 151.338 109.636 151.46C109.516 151.582 109.356 151.686 109.157 151.772C108.958 151.858 108.715 151.9 108.428 151.9ZM108.544 151.219C108.844 151.219 109.096 151.161 109.302 151.043C109.51 150.925 109.666 150.773 109.771 150.587C109.878 150.4 109.931 150.205 109.931 149.999V149.305C109.899 149.344 109.829 149.379 109.719 149.411C109.612 149.441 109.488 149.468 109.347 149.491C109.208 149.513 109.072 149.532 108.939 149.549C108.808 149.564 108.702 149.577 108.621 149.588C108.424 149.614 108.24 149.655 108.068 149.713C107.899 149.769 107.762 149.853 107.657 149.967C107.555 150.078 107.503 150.23 107.503 150.423C107.503 150.686 107.601 150.885 107.795 151.02C107.992 151.153 108.242 151.219 108.544 151.219ZM112.831 145.207V151.785H112.073V145.207H112.831ZM117.136 151.785H116.301L118.716 145.207H119.538L121.954 151.785H121.119L119.153 146.247H119.101L117.136 151.785ZM117.444 149.215H120.81V149.922H117.444V149.215ZM126.291 146.851L124.467 151.785H123.696L121.872 146.851H122.694L124.056 150.783H124.107L125.469 146.851H126.291ZM128.594 151.9C128.281 151.9 127.997 151.842 127.742 151.724C127.488 151.604 127.285 151.431 127.135 151.207C126.985 150.98 126.911 150.706 126.911 150.384C126.911 150.102 126.966 149.873 127.078 149.697C127.189 149.519 127.338 149.38 127.524 149.279C127.71 149.179 127.916 149.104 128.141 149.055C128.368 149.003 128.596 148.963 128.825 148.933C129.125 148.894 129.368 148.865 129.554 148.846C129.742 148.824 129.879 148.789 129.965 148.74C130.053 148.691 130.097 148.605 130.097 148.483V148.457C130.097 148.14 130.01 147.894 129.837 147.718C129.665 147.543 129.405 147.455 129.056 147.455C128.694 147.455 128.41 147.534 128.205 147.693C127.999 147.851 127.855 148.02 127.771 148.2L127.052 147.943C127.18 147.644 127.352 147.41 127.566 147.243C127.782 147.074 128.018 146.956 128.272 146.89C128.529 146.821 128.782 146.787 129.03 146.787C129.189 146.787 129.371 146.806 129.576 146.845C129.784 146.881 129.984 146.957 130.177 147.073C130.372 147.188 130.534 147.363 130.662 147.596C130.791 147.83 130.855 148.142 130.855 148.534V151.785H130.097V151.117H130.058C130.007 151.224 129.921 151.338 129.801 151.46C129.681 151.582 129.522 151.686 129.323 151.772C129.124 151.858 128.881 151.9 128.594 151.9ZM128.709 151.219C129.009 151.219 129.262 151.161 129.467 151.043C129.675 150.925 129.831 150.773 129.936 150.587C130.043 150.4 130.097 150.205 130.097 149.999V149.305C130.065 149.344 129.994 149.379 129.885 149.411C129.778 149.441 129.654 149.468 129.512 149.491C129.373 149.513 129.237 149.532 129.104 149.549C128.974 149.564 128.868 149.577 128.786 149.588C128.589 149.614 128.405 149.655 128.234 149.713C128.065 149.769 127.928 149.853 127.823 149.967C127.72 150.078 127.669 150.23 127.669 150.423C127.669 150.686 127.766 150.885 127.961 151.02C128.158 151.153 128.407 151.219 128.709 151.219ZM132.238 151.785V146.851H132.996V151.785H132.238ZM132.624 146.029C132.476 146.029 132.349 145.979 132.242 145.878C132.137 145.777 132.084 145.656 132.084 145.515C132.084 145.374 132.137 145.253 132.242 145.152C132.349 145.051 132.476 145.001 132.624 145.001C132.772 145.001 132.898 145.051 133.003 145.152C133.11 145.253 133.163 145.374 133.163 145.515C133.163 145.656 133.11 145.777 133.003 145.878C132.898 145.979 132.772 146.029 132.624 146.029ZM135.143 145.207V151.785H134.385V145.207H135.143ZM137.983 151.9C137.67 151.9 137.387 151.842 137.132 151.724C136.877 151.604 136.675 151.431 136.525 151.207C136.375 150.98 136.3 150.706 136.3 150.384C136.3 150.102 136.356 149.873 136.467 149.697C136.578 149.519 136.727 149.38 136.913 149.279C137.1 149.179 137.305 149.104 137.53 149.055C137.757 149.003 137.985 148.963 138.214 148.933C138.514 148.894 138.757 148.865 138.943 148.846C139.132 148.824 139.269 148.789 139.354 148.74C139.442 148.691 139.486 148.605 139.486 148.483V148.457C139.486 148.14 139.399 147.894 139.226 147.718C139.055 147.543 138.794 147.455 138.445 147.455C138.084 147.455 137.8 147.534 137.594 147.693C137.389 147.851 137.244 148.02 137.161 148.2L136.441 147.943C136.57 147.644 136.741 147.41 136.955 147.243C137.171 147.074 137.407 146.956 137.662 146.89C137.919 146.821 138.171 146.787 138.42 146.787C138.578 146.787 138.76 146.806 138.966 146.845C139.173 146.881 139.374 146.957 139.566 147.073C139.761 147.188 139.923 147.363 140.051 147.596C140.18 147.83 140.244 148.142 140.244 148.534V151.785H139.486V151.117H139.448C139.396 151.224 139.31 151.338 139.191 151.46C139.071 151.582 138.911 151.686 138.712 151.772C138.513 151.858 138.27 151.9 137.983 151.9ZM138.099 151.219C138.398 151.219 138.651 151.161 138.857 151.043C139.064 150.925 139.221 150.773 139.325 150.587C139.433 150.4 139.486 150.205 139.486 149.999V149.305C139.454 149.344 139.383 149.379 139.274 149.411C139.167 149.441 139.043 149.468 138.902 149.491C138.762 149.513 138.626 149.532 138.494 149.549C138.363 149.564 138.257 149.577 138.176 149.588C137.979 149.614 137.794 149.655 137.623 149.713C137.454 149.769 137.317 149.853 137.212 149.967C137.109 150.078 137.058 150.23 137.058 150.423C137.058 150.686 137.155 150.885 137.35 151.02C137.547 151.153 137.797 151.219 138.099 151.219ZM141.73 151.785V145.207H142.488V147.635H142.553C142.608 147.549 142.685 147.44 142.784 147.307C142.885 147.172 143.028 147.053 143.214 146.948C143.403 146.841 143.658 146.787 143.979 146.787C144.394 146.787 144.76 146.891 145.077 147.099C145.394 147.306 145.641 147.601 145.819 147.982C145.997 148.363 146.086 148.813 146.086 149.331C146.086 149.853 145.997 150.306 145.819 150.69C145.641 151.071 145.395 151.366 145.08 151.576C144.766 151.784 144.403 151.888 143.992 151.888C143.675 151.888 143.421 151.835 143.23 151.73C143.04 151.623 142.893 151.502 142.79 151.367C142.688 151.23 142.608 151.117 142.553 151.027H142.463V151.785H141.73ZM142.476 149.318C142.476 149.691 142.53 150.019 142.639 150.304C142.749 150.587 142.908 150.808 143.118 150.969C143.328 151.127 143.585 151.207 143.889 151.207C144.206 151.207 144.47 151.123 144.682 150.956C144.896 150.787 145.057 150.56 145.164 150.275C145.273 149.988 145.328 149.669 145.328 149.318C145.328 148.971 145.274 148.658 145.167 148.38C145.062 148.1 144.903 147.878 144.689 147.715C144.477 147.55 144.21 147.468 143.889 147.468C143.581 147.468 143.321 147.546 143.112 147.702C142.902 147.857 142.743 148.073 142.636 148.351C142.529 148.627 142.476 148.95 142.476 149.318ZM148.003 145.207V151.785H147.245V145.207H148.003ZM151.46 151.888C150.985 151.888 150.575 151.783 150.23 151.573C149.887 151.361 149.623 151.065 149.437 150.686C149.253 150.305 149.16 149.862 149.16 149.357C149.16 148.851 149.253 148.406 149.437 148.02C149.623 147.633 149.882 147.331 150.214 147.115C150.548 146.896 150.938 146.787 151.383 146.787C151.64 146.787 151.894 146.83 152.144 146.915C152.395 147.001 152.623 147.14 152.828 147.333C153.034 147.524 153.198 147.776 153.32 148.091C153.442 148.406 153.503 148.793 153.503 149.254V149.575H149.7V148.92H152.732C152.732 148.641 152.676 148.393 152.565 148.175C152.456 147.956 152.3 147.784 152.096 147.657C151.895 147.531 151.657 147.468 151.383 147.468C151.081 147.468 150.82 147.543 150.599 147.693C150.381 147.841 150.213 148.033 150.095 148.271C149.977 148.509 149.918 148.763 149.918 149.035V149.472C149.918 149.845 149.983 150.161 150.111 150.42C150.242 150.677 150.423 150.873 150.654 151.007C150.885 151.14 151.154 151.207 151.46 151.207C151.659 151.207 151.839 151.179 152 151.123C152.163 151.065 152.303 150.98 152.421 150.866C152.538 150.751 152.629 150.607 152.694 150.436L153.426 150.641C153.349 150.89 153.219 151.108 153.037 151.297C152.855 151.483 152.63 151.628 152.363 151.733C152.095 151.836 151.794 151.888 151.46 151.888Z" fill="#616879"/>
<path d="M93.5786 174.049H92.7435L95.1588 167.471H95.9811L98.3965 174.049H97.5614L95.5957 168.512H95.5443L93.5786 174.049ZM93.8869 171.48H97.253V172.187H93.8869V171.48ZM100.076 167.471V174.049H99.3183V167.471H100.076ZM101.465 174.049V169.116H102.197V169.861H102.248C102.338 169.617 102.501 169.419 102.737 169.267C102.972 169.115 103.238 169.039 103.533 169.039C103.589 169.039 103.658 169.04 103.742 169.042C103.825 169.044 103.889 169.047 103.931 169.052V169.823C103.906 169.816 103.847 169.806 103.755 169.794C103.665 169.779 103.57 169.771 103.469 169.771C103.229 169.771 103.015 169.821 102.827 169.922C102.64 170.021 102.493 170.158 102.383 170.333C102.276 170.507 102.223 170.705 102.223 170.927V174.049H101.465ZM106.748 174.152C106.273 174.152 105.863 174.047 105.518 173.837C105.176 173.625 104.911 173.33 104.725 172.951C104.541 172.57 104.449 172.127 104.449 171.621C104.449 171.116 104.541 170.67 104.725 170.285C104.911 169.897 105.17 169.596 105.502 169.379C105.836 169.161 106.226 169.052 106.671 169.052C106.928 169.052 107.182 169.094 107.432 169.18C107.683 169.266 107.911 169.405 108.117 169.598C108.322 169.788 108.486 170.041 108.608 170.356C108.73 170.67 108.791 171.058 108.791 171.518V171.84H104.988V171.184H108.02C108.02 170.906 107.965 170.658 107.853 170.439C107.744 170.221 107.588 170.048 107.384 169.922C107.183 169.796 106.945 169.733 106.671 169.733C106.369 169.733 106.108 169.808 105.888 169.957C105.669 170.105 105.501 170.298 105.383 170.536C105.265 170.773 105.207 171.028 105.207 171.3V171.737C105.207 172.109 105.271 172.425 105.399 172.684C105.53 172.941 105.711 173.137 105.942 173.272C106.173 173.405 106.442 173.471 106.748 173.471C106.947 173.471 107.127 173.443 107.288 173.388C107.451 173.33 107.591 173.244 107.709 173.131C107.826 173.015 107.917 172.872 107.982 172.7L108.714 172.906C108.637 173.154 108.507 173.373 108.325 173.561C108.143 173.748 107.919 173.893 107.651 173.998C107.383 174.101 107.082 174.152 106.748 174.152ZM111.396 174.165C111.083 174.165 110.8 174.106 110.545 173.988C110.29 173.868 110.088 173.696 109.938 173.471C109.788 173.244 109.713 172.97 109.713 172.649C109.713 172.366 109.769 172.137 109.88 171.962C109.991 171.784 110.14 171.645 110.326 171.544C110.513 171.443 110.718 171.369 110.943 171.319C111.17 171.268 111.398 171.227 111.627 171.197C111.927 171.159 112.17 171.13 112.356 171.111C112.545 171.089 112.682 171.054 112.768 171.005C112.855 170.955 112.899 170.87 112.899 170.748V170.722C112.899 170.405 112.812 170.159 112.639 169.983C112.468 169.808 112.208 169.72 111.859 169.72C111.497 169.72 111.213 169.799 111.007 169.957C110.802 170.116 110.657 170.285 110.574 170.465L109.854 170.208C109.983 169.908 110.154 169.675 110.368 169.508C110.584 169.339 110.82 169.221 111.075 169.154C111.332 169.086 111.584 169.052 111.833 169.052C111.991 169.052 112.173 169.071 112.379 169.109C112.587 169.146 112.787 169.222 112.98 169.338C113.174 169.453 113.336 169.628 113.465 169.861C113.593 170.094 113.657 170.407 113.657 170.799V174.049H112.899V173.381H112.861C112.809 173.488 112.724 173.603 112.604 173.725C112.484 173.847 112.324 173.951 112.125 174.037C111.926 174.122 111.683 174.165 111.396 174.165ZM111.512 173.484C111.811 173.484 112.064 173.425 112.27 173.307C112.477 173.19 112.634 173.038 112.739 172.851C112.846 172.665 112.899 172.469 112.899 172.264V171.57C112.867 171.608 112.796 171.644 112.687 171.676C112.58 171.706 112.456 171.733 112.315 171.756C112.175 171.778 112.039 171.797 111.907 171.814C111.776 171.829 111.67 171.842 111.589 171.852C111.392 171.878 111.208 171.92 111.036 171.978C110.867 172.033 110.73 172.118 110.625 172.231C110.522 172.343 110.471 172.495 110.471 172.688C110.471 172.951 110.568 173.15 110.763 173.285C110.96 173.418 111.21 173.484 111.512 173.484ZM116.904 174.152C116.493 174.152 116.13 174.048 115.815 173.841C115.5 173.631 115.254 173.335 115.076 172.954C114.898 172.571 114.81 172.118 114.81 171.596C114.81 171.077 114.898 170.628 115.076 170.246C115.254 169.865 115.501 169.571 115.818 169.363C116.135 169.156 116.501 169.052 116.917 169.052C117.238 169.052 117.491 169.105 117.678 169.212C117.866 169.317 118.01 169.437 118.108 169.572C118.209 169.705 118.287 169.814 118.343 169.9H118.407V167.471H119.165V174.049H118.433V173.291H118.343C118.287 173.381 118.208 173.495 118.105 173.632C118.002 173.767 117.856 173.888 117.665 173.995C117.474 174.1 117.221 174.152 116.904 174.152ZM117.006 173.471C117.311 173.471 117.568 173.392 117.777 173.234C117.987 173.073 118.147 172.851 118.256 172.569C118.365 172.284 118.42 171.955 118.42 171.583C118.42 171.214 118.366 170.892 118.259 170.616C118.152 170.338 117.994 170.121 117.784 169.967C117.574 169.811 117.315 169.733 117.006 169.733C116.685 169.733 116.418 169.815 116.204 169.98C115.992 170.143 115.832 170.364 115.725 170.645C115.62 170.923 115.568 171.236 115.568 171.583C115.568 171.934 115.621 172.253 115.728 172.54C115.837 172.825 115.998 173.052 116.21 173.221C116.424 173.388 116.69 173.471 117.006 173.471ZM121.147 175.9C121.018 175.9 120.904 175.889 120.803 175.867C120.702 175.848 120.633 175.829 120.594 175.81L120.787 175.141C120.971 175.189 121.134 175.206 121.275 175.193C121.416 175.18 121.542 175.117 121.651 175.003C121.762 174.892 121.864 174.711 121.956 174.461L122.097 174.075L120.273 169.116H121.095L122.457 173.047H122.509L123.87 169.116H124.693L122.598 174.769C122.504 175.024 122.388 175.235 122.248 175.402C122.109 175.571 121.948 175.696 121.763 175.777C121.581 175.859 121.376 175.9 121.147 175.9ZM127.98 168.178V167.471H132.914V168.178H130.845V174.049H130.049V168.178H127.98ZM134.821 174.165C134.508 174.165 134.224 174.106 133.97 173.988C133.715 173.868 133.512 173.696 133.363 173.471C133.213 173.244 133.138 172.97 133.138 172.649C133.138 172.366 133.193 172.137 133.305 171.962C133.416 171.784 133.565 171.645 133.751 171.544C133.937 171.443 134.143 171.369 134.368 171.319C134.595 171.268 134.823 171.227 135.052 171.197C135.352 171.159 135.595 171.13 135.781 171.111C135.97 171.089 136.107 171.054 136.192 171.005C136.28 170.955 136.324 170.87 136.324 170.748V170.722C136.324 170.405 136.237 170.159 136.064 169.983C135.892 169.808 135.632 169.72 135.283 169.72C134.921 169.72 134.638 169.799 134.432 169.957C134.227 170.116 134.082 170.285 133.998 170.465L133.279 170.208C133.407 169.908 133.579 169.675 133.793 169.508C134.009 169.339 134.245 169.221 134.5 169.154C134.756 169.086 135.009 169.052 135.258 169.052C135.416 169.052 135.598 169.071 135.804 169.109C136.011 169.146 136.212 169.222 136.404 169.338C136.599 169.453 136.761 169.628 136.889 169.861C137.018 170.094 137.082 170.407 137.082 170.799V174.049H136.324V173.381H136.285C136.234 173.488 136.148 173.603 136.028 173.725C135.909 173.847 135.749 173.951 135.55 174.037C135.351 174.122 135.108 174.165 134.821 174.165ZM134.936 173.484C135.236 173.484 135.489 173.425 135.694 173.307C135.902 173.19 136.058 173.038 136.163 172.851C136.27 172.665 136.324 172.469 136.324 172.264V171.57C136.292 171.608 136.221 171.644 136.112 171.676C136.005 171.706 135.881 171.733 135.739 171.756C135.6 171.778 135.464 171.797 135.331 171.814C135.201 171.829 135.095 171.842 135.013 171.852C134.816 171.878 134.632 171.92 134.461 171.978C134.292 172.033 134.155 172.118 134.05 172.231C133.947 172.343 133.896 172.495 133.896 172.688C133.896 172.951 133.993 173.15 134.188 173.285C134.385 173.418 134.634 173.484 134.936 173.484ZM139.172 172.251L139.159 171.313H139.313L141.472 169.116H142.41L140.11 171.441H140.046L139.172 172.251ZM138.465 174.049V167.471H139.224V174.049H138.465ZM141.6 174.049L139.673 171.608L140.213 171.082L142.564 174.049H141.6ZM145.251 174.152C144.775 174.152 144.365 174.047 144.021 173.837C143.678 173.625 143.413 173.33 143.227 172.951C143.043 172.57 142.951 172.127 142.951 171.621C142.951 171.116 143.043 170.67 143.227 170.285C143.413 169.897 143.673 169.596 144.004 169.379C144.339 169.161 144.728 169.052 145.174 169.052C145.431 169.052 145.684 169.094 145.935 169.18C146.185 169.266 146.413 169.405 146.619 169.598C146.825 169.788 146.988 170.041 147.11 170.356C147.232 170.67 147.294 171.058 147.294 171.518V171.84H143.491V171.184H146.523C146.523 170.906 146.467 170.658 146.356 170.439C146.246 170.221 146.09 170.048 145.887 169.922C145.685 169.796 145.448 169.733 145.174 169.733C144.872 169.733 144.61 169.808 144.39 169.957C144.171 170.105 144.003 170.298 143.886 170.536C143.768 170.773 143.709 171.028 143.709 171.3V171.737C143.709 172.109 143.773 172.425 143.902 172.684C144.032 172.941 144.213 173.137 144.445 173.272C144.676 173.405 144.945 173.471 145.251 173.471C145.45 173.471 145.63 173.443 145.79 173.388C145.953 173.33 146.093 173.244 146.211 173.131C146.329 173.015 146.42 172.872 146.484 172.7L147.216 172.906C147.139 173.154 147.01 173.373 146.828 173.561C146.646 173.748 146.421 173.893 146.153 173.998C145.886 174.101 145.585 174.152 145.251 174.152ZM149.205 171.082V174.049H148.447V169.116H149.179V169.887H149.243C149.359 169.636 149.534 169.435 149.77 169.283C150.005 169.129 150.31 169.052 150.682 169.052C151.016 169.052 151.308 169.12 151.559 169.257C151.81 169.392 152.004 169.598 152.144 169.874C152.283 170.148 152.352 170.495 152.352 170.915V174.049H151.594V170.966C151.594 170.578 151.494 170.276 151.292 170.06C151.091 169.842 150.815 169.733 150.464 169.733C150.222 169.733 150.005 169.785 149.815 169.89C149.626 169.995 149.478 170.148 149.368 170.349C149.259 170.551 149.205 170.795 149.205 171.082Z" fill="#616879"/>
<path d="M94.0058 201.879H92.7338L95.0496 195.301H96.5207L98.8397 201.879H97.5678L95.8109 196.65H95.7595L94.0058 201.879ZM94.0475 199.3H97.5164V200.257H94.0475V199.3ZM103.443 196.946L101.686 201.879H100.402L98.6446 196.946H99.8844L101.018 200.611H101.07L102.207 196.946H103.443ZM105.526 201.979C105.214 201.979 104.932 201.923 104.681 201.812C104.433 201.698 104.236 201.531 104.09 201.311C103.947 201.09 103.875 200.818 103.875 200.495C103.875 200.217 103.927 199.986 104.029 199.804C104.132 199.622 104.272 199.477 104.45 199.368C104.628 199.258 104.828 199.176 105.051 199.12C105.276 199.063 105.508 199.021 105.748 198.995C106.037 198.965 106.271 198.938 106.451 198.915C106.631 198.889 106.762 198.851 106.843 198.799C106.927 198.746 106.968 198.663 106.968 198.552V198.533C106.968 198.291 106.897 198.103 106.753 197.97C106.61 197.838 106.403 197.771 106.133 197.771C105.848 197.771 105.623 197.833 105.456 197.958C105.291 198.082 105.179 198.228 105.121 198.398L104.036 198.243C104.122 197.944 104.263 197.693 104.46 197.492C104.657 197.288 104.898 197.136 105.183 197.036C105.467 196.933 105.782 196.882 106.127 196.882C106.365 196.882 106.601 196.909 106.837 196.965C107.072 197.021 107.287 197.113 107.482 197.241C107.677 197.368 107.833 197.54 107.951 197.758C108.071 197.977 108.131 198.25 108.131 198.578V201.879H107.013V201.202H106.975C106.904 201.339 106.805 201.467 106.676 201.587C106.55 201.705 106.39 201.8 106.197 201.873C106.007 201.944 105.783 201.979 105.526 201.979ZM105.828 201.125C106.062 201.125 106.264 201.079 106.435 200.986C106.606 200.892 106.738 200.768 106.83 200.614C106.924 200.46 106.972 200.292 106.972 200.11V199.528C106.935 199.558 106.873 199.586 106.785 199.612C106.7 199.637 106.603 199.66 106.496 199.679C106.389 199.698 106.283 199.716 106.178 199.731C106.073 199.746 105.982 199.758 105.905 199.769C105.732 199.793 105.577 199.831 105.439 199.885C105.302 199.938 105.194 200.013 105.115 200.11C105.036 200.204 104.996 200.326 104.996 200.476C104.996 200.69 105.074 200.852 105.231 200.961C105.387 201.07 105.586 201.125 105.828 201.125ZM109.3 201.879V196.946H110.463V201.879H109.3ZM109.885 196.246C109.701 196.246 109.542 196.185 109.409 196.063C109.277 195.938 109.21 195.79 109.21 195.616C109.21 195.441 109.277 195.292 109.409 195.17C109.542 195.045 109.701 194.983 109.885 194.983C110.071 194.983 110.23 195.045 110.36 195.17C110.493 195.292 110.559 195.441 110.559 195.616C110.559 195.79 110.493 195.938 110.36 196.063C110.23 196.185 110.071 196.246 109.885 196.246ZM112.821 195.301V201.879H111.659V195.301H112.821ZM115.437 201.979C115.124 201.979 114.842 201.923 114.592 201.812C114.344 201.698 114.147 201.531 114.001 201.311C113.857 201.09 113.786 200.818 113.786 200.495C113.786 200.217 113.837 199.986 113.94 199.804C114.043 199.622 114.183 199.477 114.361 199.368C114.538 199.258 114.739 199.176 114.961 199.12C115.186 199.063 115.418 199.021 115.658 198.995C115.947 198.965 116.182 198.938 116.362 198.915C116.542 198.889 116.672 198.851 116.754 198.799C116.837 198.746 116.879 198.663 116.879 198.552V198.533C116.879 198.291 116.807 198.103 116.664 197.97C116.52 197.838 116.314 197.771 116.044 197.771C115.759 197.771 115.533 197.833 115.366 197.958C115.201 198.082 115.09 198.228 115.032 198.398L113.946 198.243C114.032 197.944 114.173 197.693 114.37 197.492C114.567 197.288 114.808 197.136 115.093 197.036C115.378 196.933 115.693 196.882 116.037 196.882C116.275 196.882 116.512 196.909 116.747 196.965C116.983 197.021 117.198 197.113 117.393 197.241C117.588 197.368 117.744 197.54 117.862 197.758C117.982 197.977 118.042 198.25 118.042 198.578V201.879H116.924V201.202H116.885C116.815 201.339 116.715 201.467 116.587 201.587C116.46 201.705 116.301 201.8 116.108 201.873C115.917 201.944 115.694 201.979 115.437 201.979ZM115.739 201.125C115.972 201.125 116.174 201.079 116.346 200.986C116.517 200.892 116.649 200.768 116.741 200.614C116.835 200.46 116.882 200.292 116.882 200.11V199.528C116.846 199.558 116.784 199.586 116.696 199.612C116.61 199.637 116.514 199.66 116.407 199.679C116.3 199.698 116.194 199.716 116.089 199.731C115.984 199.746 115.893 199.758 115.816 199.769C115.642 199.793 115.487 199.831 115.35 199.885C115.213 199.938 115.105 200.013 115.026 200.11C114.946 200.204 114.907 200.326 114.907 200.476C114.907 200.69 114.985 200.852 115.141 200.961C115.297 201.07 115.497 201.125 115.739 201.125ZM119.262 201.879V195.301H120.425V197.762H120.473C120.533 197.642 120.618 197.514 120.727 197.379C120.836 197.242 120.984 197.126 121.17 197.029C121.356 196.931 121.594 196.882 121.883 196.882C122.264 196.882 122.608 196.979 122.914 197.174C123.222 197.367 123.467 197.652 123.646 198.031C123.828 198.408 123.919 198.871 123.919 199.419C123.919 199.961 123.831 200.421 123.653 200.8C123.475 201.179 123.233 201.468 122.927 201.667C122.621 201.867 122.274 201.966 121.886 201.966C121.604 201.966 121.369 201.919 121.183 201.825C120.997 201.731 120.847 201.617 120.733 201.484C120.622 201.349 120.535 201.222 120.473 201.102H120.406V201.879H119.262ZM120.402 199.413C120.402 199.732 120.447 200.011 120.537 200.251C120.629 200.491 120.761 200.678 120.932 200.813C121.106 200.946 121.316 201.012 121.562 201.012C121.819 201.012 122.034 200.944 122.207 200.807C122.381 200.667 122.511 200.478 122.599 200.238C122.689 199.996 122.734 199.721 122.734 199.413C122.734 199.106 122.69 198.834 122.602 198.597C122.515 198.359 122.384 198.173 122.211 198.038C122.037 197.903 121.821 197.836 121.562 197.836C121.313 197.836 121.103 197.901 120.929 198.031C120.756 198.162 120.624 198.345 120.534 198.581C120.446 198.816 120.402 199.094 120.402 199.413ZM126.071 195.301V201.879H124.908V195.301H126.071ZM129.45 201.976C128.956 201.976 128.529 201.873 128.169 201.667C127.811 201.46 127.536 201.166 127.343 200.787C127.151 200.406 127.054 199.958 127.054 199.442C127.054 198.934 127.151 198.489 127.343 198.105C127.538 197.72 127.81 197.42 128.159 197.206C128.508 196.99 128.918 196.882 129.389 196.882C129.693 196.882 129.98 196.931 130.25 197.029C130.522 197.126 130.762 197.276 130.97 197.479C131.179 197.682 131.344 197.942 131.464 198.256C131.584 198.569 131.644 198.942 131.644 199.374V199.731H127.6V198.947H130.53C130.527 198.724 130.479 198.526 130.385 198.353C130.291 198.177 130.159 198.039 129.99 197.938C129.823 197.838 129.628 197.787 129.405 197.787C129.168 197.787 128.959 197.845 128.779 197.961C128.599 198.074 128.459 198.224 128.358 198.41C128.26 198.595 128.209 198.797 128.207 199.018V199.702C128.207 199.989 128.26 200.235 128.365 200.44C128.47 200.644 128.616 200.8 128.805 200.909C128.993 201.016 129.214 201.07 129.466 201.07C129.636 201.07 129.789 201.046 129.926 200.999C130.063 200.95 130.182 200.878 130.282 200.784C130.383 200.69 130.459 200.573 130.51 200.434L131.596 200.556C131.527 200.843 131.397 201.094 131.204 201.308C131.014 201.52 130.769 201.685 130.472 201.802C130.174 201.918 129.834 201.976 129.45 201.976ZM134.634 196.3V195.301H139.882V196.3H137.849V201.879H136.667V196.3H134.634ZM142.279 201.976C141.797 201.976 141.38 201.87 141.026 201.658C140.673 201.446 140.399 201.149 140.204 200.768C140.011 200.387 139.915 199.942 139.915 199.432C139.915 198.922 140.011 198.476 140.204 198.093C140.399 197.709 140.673 197.412 141.026 197.2C141.38 196.988 141.797 196.882 142.279 196.882C142.761 196.882 143.178 196.988 143.532 197.2C143.885 197.412 144.158 197.709 144.351 198.093C144.545 198.476 144.643 198.922 144.643 199.432C144.643 199.942 144.545 200.387 144.351 200.768C144.158 201.149 143.885 201.446 143.532 201.658C143.178 201.87 142.761 201.976 142.279 201.976ZM142.285 201.044C142.547 201.044 142.765 200.973 142.941 200.829C143.116 200.683 143.247 200.489 143.332 200.245C143.42 200 143.464 199.728 143.464 199.429C143.464 199.127 143.42 198.854 143.332 198.61C143.247 198.363 143.116 198.167 142.941 198.022C142.765 197.876 142.547 197.803 142.285 197.803C142.018 197.803 141.795 197.876 141.617 198.022C141.442 198.167 141.31 198.363 141.222 198.61C141.136 198.854 141.094 199.127 141.094 199.429C141.094 199.728 141.136 200 141.222 200.245C141.31 200.489 141.442 200.683 141.617 200.829C141.795 200.973 142.018 201.044 142.285 201.044ZM147.461 201.966C147.073 201.966 146.726 201.867 146.42 201.667C146.114 201.468 145.872 201.179 145.694 200.8C145.516 200.421 145.427 199.961 145.427 199.419C145.427 198.871 145.517 198.408 145.697 198.031C145.879 197.652 146.124 197.367 146.433 197.174C146.741 196.979 147.085 196.882 147.464 196.882C147.753 196.882 147.991 196.931 148.177 197.029C148.363 197.126 148.511 197.242 148.62 197.379C148.729 197.514 148.814 197.642 148.874 197.762H148.922V195.301H150.088V201.879H148.944V201.102H148.874C148.814 201.222 148.727 201.349 148.614 201.484C148.5 201.617 148.35 201.731 148.164 201.825C147.978 201.919 147.743 201.966 147.461 201.966ZM147.785 201.012C148.031 201.012 148.241 200.946 148.414 200.813C148.588 200.678 148.72 200.491 148.81 200.251C148.899 200.011 148.944 199.732 148.944 199.413C148.944 199.094 148.899 198.816 148.81 198.581C148.722 198.345 148.591 198.162 148.418 198.031C148.246 197.901 148.035 197.836 147.785 197.836C147.526 197.836 147.31 197.903 147.136 198.038C146.963 198.173 146.832 198.359 146.744 198.597C146.656 198.834 146.613 199.106 146.613 199.413C146.613 199.721 146.656 199.996 146.744 200.238C146.834 200.478 146.966 200.667 147.139 200.807C147.315 200.944 147.53 201.012 147.785 201.012ZM152.747 201.979C152.434 201.979 152.152 201.923 151.902 201.812C151.653 201.698 151.456 201.531 151.311 201.311C151.167 201.09 151.096 200.818 151.096 200.495C151.096 200.217 151.147 199.986 151.25 199.804C151.353 199.622 151.493 199.477 151.671 199.368C151.848 199.258 152.049 199.176 152.271 199.12C152.496 199.063 152.728 199.021 152.968 198.995C153.257 198.965 153.492 198.938 153.672 198.915C153.851 198.889 153.982 198.851 154.063 198.799C154.147 198.746 154.189 198.663 154.189 198.552V198.533C154.189 198.291 154.117 198.103 153.974 197.97C153.83 197.838 153.623 197.771 153.354 197.771C153.069 197.771 152.843 197.833 152.676 197.958C152.511 198.082 152.4 198.228 152.342 198.398L151.256 198.243C151.342 197.944 151.483 197.693 151.68 197.492C151.877 197.288 152.118 197.136 152.403 197.036C152.688 196.933 153.002 196.882 153.347 196.882C153.585 196.882 153.822 196.909 154.057 196.965C154.293 197.021 154.508 197.113 154.703 197.241C154.898 197.368 155.054 197.54 155.172 197.758C155.292 197.977 155.351 198.25 155.351 198.578V201.879H154.234V201.202H154.195C154.125 201.339 154.025 201.467 153.896 201.587C153.77 201.705 153.611 201.8 153.418 201.873C153.227 201.944 153.004 201.979 152.747 201.979ZM153.049 201.125C153.282 201.125 153.484 201.079 153.656 200.986C153.827 200.892 153.959 200.768 154.051 200.614C154.145 200.46 154.192 200.292 154.192 200.11V199.528C154.156 199.558 154.093 199.586 154.006 199.612C153.92 199.637 153.824 199.66 153.717 199.679C153.61 199.698 153.504 199.716 153.399 199.731C153.294 199.746 153.203 199.758 153.126 199.769C152.952 199.793 152.797 199.831 152.66 199.885C152.523 199.938 152.415 200.013 152.335 200.11C152.256 200.204 152.217 200.326 152.217 200.476C152.217 200.69 152.295 200.852 152.451 200.961C152.607 201.07 152.807 201.125 153.049 201.125ZM157.067 203.729C156.908 203.729 156.762 203.717 156.627 203.691C156.494 203.667 156.388 203.64 156.309 203.607L156.578 202.702C156.748 202.751 156.899 202.774 157.031 202.772C157.164 202.77 157.281 202.728 157.381 202.647C157.484 202.568 157.571 202.435 157.642 202.249L157.741 201.982L155.952 196.946H157.185L158.323 200.672H158.374L159.514 196.946H160.751L158.775 202.477C158.683 202.738 158.561 202.962 158.409 203.148C158.257 203.337 158.071 203.48 157.85 203.579C157.632 203.679 157.371 203.729 157.067 203.729Z" fill="#616879"/>
<path d="M235.887 174.872V166.649H236.414V174.872H235.887ZM237.535 169.199C237.501 168.895 237.359 168.66 237.111 168.493C236.862 168.324 236.55 168.239 236.173 168.239C235.903 168.239 235.67 168.282 235.473 168.368C235.276 168.451 235.123 168.567 235.013 168.714C234.906 168.86 234.853 169.026 234.853 169.212C234.853 169.369 234.889 169.503 234.962 169.617C235.037 169.73 235.134 169.826 235.254 169.903C235.376 169.978 235.507 170.041 235.646 170.092C235.785 170.142 235.919 170.182 236.048 170.214L236.69 170.381C236.9 170.433 237.115 170.502 237.336 170.59C237.556 170.678 237.761 170.794 237.949 170.937C238.138 171.081 238.29 171.258 238.405 171.47C238.523 171.682 238.582 171.936 238.582 172.231C238.582 172.604 238.486 172.935 238.293 173.224C238.102 173.513 237.825 173.741 237.461 173.908C237.099 174.075 236.661 174.159 236.147 174.159C235.655 174.159 235.229 174.08 234.869 173.924C234.509 173.768 234.228 173.546 234.024 173.259C233.821 172.97 233.708 172.628 233.687 172.231H234.683C234.702 172.469 234.779 172.667 234.914 172.826C235.051 172.982 235.225 173.099 235.437 173.176C235.652 173.251 235.886 173.288 236.141 173.288C236.421 173.288 236.671 173.244 236.889 173.157C237.11 173.067 237.283 172.942 237.41 172.784C237.536 172.623 237.599 172.436 237.599 172.222C237.599 172.027 237.543 171.867 237.432 171.743C237.323 171.619 237.174 171.516 236.986 171.435C236.799 171.354 236.588 171.282 236.353 171.22L235.576 171.008C235.049 170.864 234.631 170.653 234.323 170.375C234.017 170.097 233.864 169.728 233.864 169.27C233.864 168.891 233.966 168.56 234.172 168.278C234.377 167.995 234.656 167.775 235.007 167.619C235.358 167.461 235.754 167.381 236.195 167.381C236.641 167.381 237.034 167.46 237.374 167.616C237.717 167.772 237.987 167.987 238.184 168.262C238.381 168.533 238.483 168.846 238.492 169.199H237.535ZM241.968 174.159C241.461 174.157 241.027 174.023 240.667 173.757C240.308 173.492 240.032 173.105 239.842 172.598C239.651 172.09 239.556 171.479 239.556 170.764C239.556 170.051 239.651 169.441 239.842 168.936C240.035 168.431 240.311 168.045 240.67 167.78C241.032 167.514 241.465 167.381 241.968 167.381C242.471 167.381 242.903 167.515 243.263 167.783C243.622 168.048 243.897 168.434 244.088 168.939C244.281 169.442 244.377 170.051 244.377 170.764C244.377 171.481 244.282 172.093 244.091 172.601C243.901 173.106 243.625 173.493 243.266 173.76C242.906 174.026 242.473 174.159 241.968 174.159ZM241.968 173.301C242.414 173.301 242.761 173.084 243.012 172.649C243.265 172.214 243.391 171.586 243.391 170.764C243.391 170.218 243.333 169.756 243.218 169.379C243.104 169 242.94 168.713 242.726 168.518C242.514 168.321 242.261 168.223 241.968 168.223C241.525 168.223 241.177 168.441 240.924 168.878C240.672 169.315 240.544 169.944 240.542 170.764C240.542 171.312 240.599 171.775 240.712 172.154C240.828 172.531 240.992 172.817 241.204 173.012C241.416 173.205 241.67 173.301 241.968 173.301Z" fill="#111111"/>
<path d="M196.039 152.607V144.384H196.566V152.607H196.039ZM197.687 146.935C197.652 146.631 197.511 146.395 197.263 146.228C197.014 146.059 196.702 145.974 196.325 145.974C196.055 145.974 195.822 146.017 195.625 146.103C195.428 146.186 195.274 146.302 195.165 146.45C195.058 146.595 195.005 146.761 195.005 146.948C195.005 147.104 195.041 147.239 195.114 147.352C195.189 147.466 195.286 147.561 195.406 147.638C195.528 147.713 195.659 147.776 195.798 147.828C195.937 147.877 196.071 147.918 196.199 147.95L196.842 148.117C197.052 148.168 197.267 148.238 197.487 148.326C197.708 148.413 197.912 148.529 198.101 148.672C198.289 148.816 198.441 148.994 198.557 149.206C198.675 149.418 198.734 149.671 198.734 149.967C198.734 150.339 198.637 150.67 198.445 150.959C198.254 151.248 197.977 151.476 197.613 151.643C197.251 151.81 196.813 151.894 196.299 151.894C195.807 151.894 195.38 151.816 195.021 151.66C194.661 151.503 194.379 151.282 194.176 150.995C193.972 150.706 193.86 150.363 193.839 149.967H194.834C194.854 150.205 194.931 150.403 195.066 150.561C195.203 150.717 195.377 150.834 195.589 150.911C195.803 150.986 196.038 151.024 196.293 151.024C196.573 151.024 196.823 150.98 197.041 150.892C197.262 150.802 197.435 150.678 197.561 150.519C197.688 150.359 197.751 150.171 197.751 149.957C197.751 149.762 197.695 149.603 197.584 149.479C197.475 149.354 197.326 149.252 197.137 149.17C196.951 149.089 196.74 149.017 196.505 148.955L195.727 148.743C195.201 148.6 194.783 148.389 194.475 148.11C194.168 147.832 194.015 147.464 194.015 147.005C194.015 146.626 194.118 146.296 194.324 146.013C194.529 145.73 194.808 145.511 195.159 145.354C195.51 145.196 195.906 145.117 196.347 145.117C196.793 145.117 197.186 145.195 197.526 145.351C197.869 145.508 198.138 145.723 198.335 145.997C198.532 146.269 198.635 146.581 198.644 146.935H197.687ZM199.83 151.785V151.065L202.056 148.759C202.293 148.509 202.489 148.289 202.643 148.101C202.8 147.91 202.916 147.729 202.994 147.558C203.071 147.387 203.109 147.205 203.109 147.012C203.109 146.793 203.058 146.605 202.955 146.447C202.852 146.286 202.712 146.163 202.534 146.077C202.356 145.989 202.156 145.945 201.934 145.945C201.698 145.945 201.492 145.994 201.317 146.09C201.141 146.186 201.006 146.322 200.912 146.498C200.818 146.674 200.771 146.879 200.771 147.115H199.823C199.823 146.714 199.915 146.364 200.1 146.064C200.284 145.765 200.536 145.532 200.858 145.367C201.179 145.2 201.544 145.117 201.953 145.117C202.366 145.117 202.73 145.199 203.045 145.364C203.362 145.527 203.609 145.75 203.787 146.032C203.965 146.313 204.053 146.63 204.053 146.983C204.053 147.227 204.007 147.466 203.915 147.699C203.825 147.933 203.668 148.193 203.443 148.48C203.218 148.764 202.906 149.11 202.505 149.517L201.198 150.885V150.934H204.159V151.785H199.83ZM206.639 150.885L206.591 151.236C206.559 151.493 206.504 151.76 206.427 152.039C206.352 152.319 206.274 152.579 206.193 152.819C206.113 153.059 206.048 153.249 205.997 153.391H205.316C205.344 153.258 205.382 153.078 205.431 152.851C205.481 152.626 205.529 152.375 205.576 152.096C205.623 151.818 205.658 151.534 205.682 151.245L205.714 150.885H206.639ZM210.034 151.894C209.527 151.892 209.093 151.758 208.733 151.493C208.374 151.227 208.098 150.84 207.908 150.333C207.717 149.826 207.622 149.214 207.622 148.499C207.622 147.786 207.717 147.177 207.908 146.671C208.1 146.166 208.377 145.781 208.736 145.515C209.098 145.25 209.531 145.117 210.034 145.117C210.537 145.117 210.969 145.251 211.329 145.518C211.688 145.784 211.963 146.169 212.154 146.675C212.347 147.178 212.443 147.786 212.443 148.499C212.443 149.216 212.348 149.829 212.157 150.336C211.967 150.842 211.691 151.228 211.332 151.496C210.972 151.761 210.539 151.894 210.034 151.894ZM210.034 151.036C210.479 151.036 210.827 150.819 211.078 150.384C211.331 149.95 211.457 149.321 211.457 148.499C211.457 147.953 211.399 147.491 211.284 147.115C211.17 146.736 211.006 146.449 210.792 146.254C210.58 146.057 210.327 145.958 210.034 145.958C209.591 145.958 209.243 146.177 208.99 146.614C208.738 147.05 208.61 147.679 208.608 148.499C208.608 149.047 208.665 149.511 208.778 149.89C208.894 150.267 209.058 150.552 209.27 150.747C209.482 150.94 209.736 151.036 210.034 151.036ZM215.873 151.894C215.365 151.892 214.931 151.758 214.572 151.493C214.212 151.227 213.937 150.84 213.746 150.333C213.556 149.826 213.46 149.214 213.46 148.499C213.46 147.786 213.556 147.177 213.746 146.671C213.939 146.166 214.215 145.781 214.575 145.515C214.937 145.25 215.369 145.117 215.873 145.117C216.376 145.117 216.807 145.251 217.167 145.518C217.527 145.784 217.802 146.169 217.992 146.675C218.185 147.178 218.282 147.786 218.282 148.499C218.282 149.216 218.186 149.829 217.996 150.336C217.805 150.842 217.53 151.228 217.17 151.496C216.81 151.761 216.378 151.894 215.873 151.894ZM215.873 151.036C216.318 151.036 216.666 150.819 216.916 150.384C217.169 149.95 217.295 149.321 217.295 148.499C217.295 147.953 217.238 147.491 217.122 147.115C217.009 146.736 216.845 146.449 216.631 146.254C216.419 146.057 216.166 145.958 215.873 145.958C215.429 145.958 215.081 146.177 214.829 146.614C214.576 147.05 214.449 147.679 214.446 148.499C214.446 149.047 214.503 149.511 214.617 149.89C214.732 150.267 214.896 150.552 215.108 150.747C215.32 150.94 215.575 151.036 215.873 151.036ZM221.711 151.894C221.204 151.892 220.77 151.758 220.41 151.493C220.051 151.227 219.775 150.84 219.585 150.333C219.394 149.826 219.299 149.214 219.299 148.499C219.299 147.786 219.394 147.177 219.585 146.671C219.778 146.166 220.054 145.781 220.413 145.515C220.775 145.25 221.208 145.117 221.711 145.117C222.214 145.117 222.646 145.251 223.006 145.518C223.365 145.784 223.64 146.169 223.831 146.675C224.024 147.178 224.12 147.786 224.12 148.499C224.12 149.216 224.025 149.829 223.834 150.336C223.644 150.842 223.368 151.228 223.009 151.496C222.649 151.761 222.216 151.894 221.711 151.894ZM221.711 151.036C222.156 151.036 222.504 150.819 222.755 150.384C223.008 149.95 223.134 149.321 223.134 148.499C223.134 147.953 223.076 147.491 222.961 147.115C222.847 146.736 222.683 146.449 222.469 146.254C222.257 146.057 222.004 145.958 221.711 145.958C221.268 145.958 220.92 146.177 220.667 146.614C220.415 147.05 220.287 147.679 220.285 148.499C220.285 149.047 220.342 149.511 220.455 149.89C220.571 150.267 220.735 150.552 220.947 150.747C221.159 150.94 221.413 151.036 221.711 151.036ZM226.283 150.885L226.235 151.236C226.203 151.493 226.148 151.76 226.071 152.039C225.996 152.319 225.918 152.579 225.837 152.819C225.758 153.059 225.692 153.249 225.641 153.391H224.96C224.988 153.258 225.026 153.078 225.076 152.851C225.125 152.626 225.173 152.375 225.22 152.096C225.267 151.818 225.303 151.534 225.326 151.245L225.358 150.885H226.283ZM229.678 151.894C229.171 151.892 228.737 151.758 228.377 151.493C228.018 151.227 227.743 150.84 227.552 150.333C227.361 149.826 227.266 149.214 227.266 148.499C227.266 147.786 227.361 147.177 227.552 146.671C227.745 146.166 228.021 145.781 228.381 145.515C228.743 145.25 229.175 145.117 229.678 145.117C230.182 145.117 230.613 145.251 230.973 145.518C231.332 145.784 231.608 146.169 231.798 146.675C231.991 147.178 232.087 147.786 232.087 148.499C232.087 149.216 231.992 149.829 231.801 150.336C231.611 150.842 231.336 151.228 230.976 151.496C230.616 151.761 230.184 151.894 229.678 151.894ZM229.678 151.036C230.124 151.036 230.472 150.819 230.722 150.384C230.975 149.95 231.101 149.321 231.101 148.499C231.101 147.953 231.043 147.491 230.928 147.115C230.814 146.736 230.65 146.449 230.436 146.254C230.224 146.057 229.972 145.958 229.678 145.958C229.235 145.958 228.887 146.177 228.634 146.614C228.382 147.05 228.254 147.679 228.252 148.499C228.252 149.047 228.309 149.511 228.422 149.89C228.538 150.267 228.702 150.552 228.914 150.747C229.126 150.94 229.381 151.036 229.678 151.036ZM235.517 151.894C235.009 151.892 234.576 151.758 234.216 151.493C233.856 151.227 233.581 150.84 233.391 150.333C233.2 149.826 233.105 149.214 233.105 148.499C233.105 147.786 233.2 147.177 233.391 146.671C233.583 146.166 233.859 145.781 234.219 145.515C234.581 145.25 235.014 145.117 235.517 145.117C236.02 145.117 236.452 145.251 236.811 145.518C237.171 145.784 237.446 146.169 237.637 146.675C237.829 147.178 237.926 147.786 237.926 148.499C237.926 149.216 237.831 149.829 237.64 150.336C237.449 150.842 237.174 151.228 236.814 151.496C236.455 151.761 236.022 151.894 235.517 151.894ZM235.517 151.036C235.962 151.036 236.31 150.819 236.561 150.384C236.813 149.95 236.94 149.321 236.94 148.499C236.94 147.953 236.882 147.491 236.766 147.115C236.653 146.736 236.489 146.449 236.275 146.254C236.063 146.057 235.81 145.958 235.517 145.958C235.074 145.958 234.726 146.177 234.473 146.614C234.22 147.05 234.093 147.679 234.091 148.499C234.091 149.047 234.147 149.511 234.261 149.89C234.377 150.267 234.54 150.552 234.752 150.747C234.964 150.94 235.219 151.036 235.517 151.036ZM241.355 151.894C240.848 151.892 240.414 151.758 240.055 151.493C239.695 151.227 239.42 150.84 239.229 150.333C239.038 149.826 238.943 149.214 238.943 148.499C238.943 147.786 239.038 147.177 239.229 146.671C239.422 146.166 239.698 145.781 240.058 145.515C240.42 145.25 240.852 145.117 241.355 145.117C241.859 145.117 242.29 145.251 242.65 145.518C243.01 145.784 243.285 146.169 243.475 146.675C243.668 147.178 243.764 147.786 243.764 148.499C243.764 149.216 243.669 149.829 243.478 150.336C243.288 150.842 243.013 151.228 242.653 151.496C242.293 151.761 241.861 151.894 241.355 151.894ZM241.355 151.036C241.801 151.036 242.149 150.819 242.399 150.384C242.652 149.95 242.778 149.321 242.778 148.499C242.778 147.953 242.72 147.491 242.605 147.115C242.491 146.736 242.328 146.449 242.113 146.254C241.901 146.057 241.649 145.958 241.355 145.958C240.912 145.958 240.564 146.177 240.311 146.614C240.059 147.05 239.931 147.679 239.929 148.499C239.929 149.047 239.986 149.511 240.099 149.89C240.215 150.267 240.379 150.552 240.591 150.747C240.803 150.94 241.058 151.036 241.355 151.036Z" fill="#111111"/>
<path d="M195.373 202.702V194.479H195.9V202.702H195.373ZM196.892 197.11C196.862 196.829 196.736 196.611 196.513 196.454C196.293 196.298 196.006 196.22 195.653 196.22C195.404 196.22 195.191 196.257 195.013 196.332C194.836 196.407 194.7 196.509 194.606 196.638C194.511 196.766 194.463 196.913 194.461 197.078C194.461 197.215 194.492 197.333 194.554 197.434C194.618 197.535 194.705 197.62 194.814 197.691C194.924 197.76 195.044 197.817 195.177 197.864C195.31 197.912 195.444 197.951 195.579 197.983L196.195 198.137C196.444 198.195 196.683 198.273 196.912 198.372C197.143 198.47 197.35 198.595 197.532 198.745C197.716 198.894 197.861 199.075 197.968 199.287C198.075 199.499 198.129 199.748 198.129 200.033C198.129 200.418 198.031 200.757 197.834 201.051C197.637 201.342 197.352 201.57 196.979 201.735C196.609 201.898 196.16 201.979 195.633 201.979C195.122 201.979 194.677 201.9 194.3 201.741C193.926 201.583 193.632 201.352 193.42 201.048C193.21 200.743 193.097 200.373 193.08 199.936H194.252C194.269 200.165 194.34 200.356 194.464 200.508C194.588 200.66 194.75 200.773 194.949 200.848C195.15 200.923 195.375 200.961 195.624 200.961C195.883 200.961 196.11 200.922 196.305 200.845C196.502 200.766 196.656 200.657 196.767 200.518C196.879 200.376 196.935 200.211 196.937 200.023C196.935 199.852 196.885 199.71 196.786 199.599C196.688 199.485 196.55 199.391 196.372 199.316C196.197 199.239 195.991 199.171 195.755 199.111L195.007 198.918C194.465 198.779 194.037 198.568 193.722 198.285C193.41 198 193.253 197.622 193.253 197.151C193.253 196.764 193.358 196.424 193.568 196.133C193.78 195.842 194.068 195.616 194.432 195.456C194.796 195.293 195.208 195.211 195.669 195.211C196.135 195.211 196.544 195.293 196.896 195.456C197.249 195.616 197.526 195.84 197.728 196.127C197.929 196.412 198.033 196.739 198.039 197.11H196.892ZM199.127 201.879V201.019L201.411 198.78C201.629 198.559 201.811 198.363 201.957 198.192C202.102 198.021 202.212 197.855 202.284 197.694C202.357 197.534 202.394 197.362 202.394 197.18C202.394 196.973 202.347 196.795 202.252 196.647C202.158 196.497 202.029 196.382 201.864 196.3C201.699 196.219 201.511 196.178 201.302 196.178C201.085 196.178 200.896 196.223 200.733 196.313C200.57 196.401 200.444 196.526 200.354 196.689C200.266 196.852 200.222 197.045 200.222 197.27H199.089C199.089 196.853 199.184 196.49 199.374 196.181C199.565 195.873 199.827 195.634 200.161 195.465C200.498 195.296 200.883 195.211 201.318 195.211C201.759 195.211 202.146 195.294 202.48 195.459C202.814 195.624 203.074 195.85 203.258 196.136C203.444 196.423 203.537 196.751 203.537 197.119C203.537 197.366 203.49 197.608 203.396 197.845C203.302 198.083 203.136 198.346 202.898 198.635C202.662 198.924 202.332 199.275 201.905 199.686L200.772 200.839V200.884H203.637V201.879H199.127ZM206.123 200.98L206.081 201.333C206.051 201.603 205.997 201.877 205.92 202.156C205.845 202.436 205.766 202.694 205.683 202.93C205.599 203.165 205.532 203.35 205.48 203.485H204.697C204.727 203.355 204.767 203.177 204.819 202.952C204.872 202.727 204.924 202.475 204.973 202.194C205.022 201.914 205.055 201.629 205.072 201.34L205.095 200.98H206.123ZM209.588 202.005C209.059 202.005 208.605 201.871 208.226 201.603C207.849 201.333 207.559 200.945 207.355 200.437C207.154 199.928 207.053 199.314 207.053 198.597C207.056 197.879 207.157 197.269 207.359 196.766C207.562 196.261 207.852 195.875 208.229 195.61C208.608 195.344 209.061 195.211 209.588 195.211C210.114 195.211 210.567 195.344 210.946 195.61C211.325 195.875 211.615 196.261 211.817 196.766C212.02 197.271 212.122 197.882 212.122 198.597C212.122 199.316 212.02 199.931 211.817 200.44C211.615 200.948 211.325 201.336 210.946 201.603C210.569 201.871 210.117 202.005 209.588 202.005ZM209.588 200.999C209.999 200.999 210.323 200.797 210.561 200.392C210.801 199.985 210.921 199.387 210.921 198.597C210.921 198.074 210.866 197.635 210.757 197.28C210.648 196.924 210.493 196.657 210.294 196.477C210.095 196.295 209.86 196.204 209.588 196.204C209.179 196.204 208.855 196.407 208.618 196.814C208.38 197.219 208.26 197.813 208.258 198.597C208.256 199.121 208.308 199.563 208.415 199.92C208.524 200.278 208.679 200.548 208.878 200.73C209.077 200.909 209.314 200.999 209.588 200.999ZM215.62 202.005C215.092 202.005 214.638 201.871 214.259 201.603C213.882 201.333 213.592 200.945 213.388 200.437C213.187 199.928 213.086 199.314 213.086 198.597C213.088 197.879 213.19 197.269 213.391 196.766C213.595 196.261 213.885 195.875 214.262 195.61C214.641 195.344 215.094 195.211 215.62 195.211C216.147 195.211 216.6 195.344 216.979 195.61C217.358 195.875 217.648 196.261 217.85 196.766C218.053 197.271 218.155 197.882 218.155 198.597C218.155 199.316 218.053 199.931 217.85 200.44C217.648 200.948 217.358 201.336 216.979 201.603C216.602 201.871 216.149 202.005 215.62 202.005ZM215.62 200.999C216.032 200.999 216.356 200.797 216.594 200.392C216.834 199.985 216.953 199.387 216.953 198.597C216.953 198.074 216.899 197.635 216.79 197.28C216.68 196.924 216.526 196.657 216.327 196.477C216.128 196.295 215.892 196.204 215.62 196.204C215.211 196.204 214.888 196.407 214.65 196.814C214.413 197.219 214.293 197.813 214.291 198.597C214.289 199.121 214.341 199.563 214.448 199.92C214.557 200.278 214.711 200.548 214.911 200.73C215.11 200.909 215.346 200.999 215.62 200.999ZM221.653 202.005C221.124 202.005 220.67 201.871 220.291 201.603C219.915 201.333 219.624 200.945 219.421 200.437C219.22 199.928 219.119 199.314 219.119 198.597C219.121 197.879 219.223 197.269 219.424 196.766C219.628 196.261 219.918 195.875 220.295 195.61C220.674 195.344 221.127 195.211 221.653 195.211C222.18 195.211 222.633 195.344 223.012 195.61C223.391 195.875 223.681 196.261 223.882 196.766C224.086 197.271 224.188 197.882 224.188 198.597C224.188 199.316 224.086 199.931 223.882 200.44C223.681 200.948 223.391 201.336 223.012 201.603C222.635 201.871 222.182 202.005 221.653 202.005ZM221.653 200.999C222.064 200.999 222.389 200.797 222.627 200.392C222.866 199.985 222.986 199.387 222.986 198.597C222.986 198.074 222.932 197.635 222.822 197.28C222.713 196.924 222.559 196.657 222.36 196.477C222.161 196.295 221.925 196.204 221.653 196.204C221.244 196.204 220.921 196.407 220.683 196.814C220.446 197.219 220.326 197.813 220.324 198.597C220.321 199.121 220.374 199.563 220.481 199.92C220.59 200.278 220.744 200.548 220.943 200.73C221.143 200.909 221.379 200.999 221.653 200.999ZM226.376 200.98L226.335 201.333C226.305 201.603 226.251 201.877 226.174 202.156C226.099 202.436 226.02 202.694 225.936 202.93C225.853 203.165 225.785 203.35 225.734 203.485H224.95C224.98 203.355 225.021 203.177 225.072 202.952C225.126 202.727 225.177 202.475 225.227 202.194C225.276 201.914 225.309 201.629 225.326 201.34L225.349 200.98H226.376ZM229.841 202.005C229.312 202.005 228.858 201.871 228.479 201.603C228.103 201.333 227.812 200.945 227.609 200.437C227.408 199.928 227.307 199.314 227.307 198.597C227.309 197.879 227.411 197.269 227.612 196.766C227.816 196.261 228.106 195.875 228.483 195.61C228.862 195.344 229.315 195.211 229.841 195.211C230.368 195.211 230.821 195.344 231.2 195.61C231.579 195.875 231.869 196.261 232.07 196.766C232.274 197.271 232.376 197.882 232.376 198.597C232.376 199.316 232.274 199.931 232.07 200.44C231.869 200.948 231.579 201.336 231.2 201.603C230.823 201.871 230.37 202.005 229.841 202.005ZM229.841 200.999C230.252 200.999 230.577 200.797 230.815 200.392C231.054 199.985 231.174 199.387 231.174 198.597C231.174 198.074 231.12 197.635 231.01 197.28C230.901 196.924 230.747 196.657 230.548 196.477C230.349 196.295 230.113 196.204 229.841 196.204C229.432 196.204 229.109 196.407 228.871 196.814C228.634 197.219 228.514 197.813 228.512 198.597C228.509 199.121 228.562 199.563 228.669 199.92C228.778 200.278 228.932 200.548 229.132 200.73C229.331 200.909 229.567 200.999 229.841 200.999ZM235.874 202.005C235.345 202.005 234.891 201.871 234.512 201.603C234.135 201.333 233.845 200.945 233.642 200.437C233.441 199.928 233.34 199.314 233.34 198.597C233.342 197.879 233.444 197.269 233.645 196.766C233.849 196.261 234.139 195.875 234.516 195.61C234.895 195.344 235.347 195.211 235.874 195.211C236.401 195.211 236.854 195.344 237.233 195.61C237.612 195.875 237.902 196.261 238.103 196.766C238.307 197.271 238.408 197.882 238.408 198.597C238.408 199.316 238.307 199.931 238.103 200.44C237.902 200.948 237.612 201.336 237.233 201.603C236.856 201.871 236.403 202.005 235.874 202.005ZM235.874 200.999C236.285 200.999 236.61 200.797 236.847 200.392C237.087 199.985 237.207 199.387 237.207 198.597C237.207 198.074 237.153 197.635 237.043 197.28C236.934 196.924 236.78 196.657 236.581 196.477C236.382 196.295 236.146 196.204 235.874 196.204C235.465 196.204 235.142 196.407 234.904 196.814C234.666 197.219 234.547 197.813 234.544 198.597C234.542 199.121 234.595 199.563 234.702 199.92C234.811 200.278 234.965 200.548 235.164 200.73C235.363 200.909 235.6 200.999 235.874 200.999ZM241.907 202.005C241.378 202.005 240.924 201.871 240.545 201.603C240.168 201.333 239.878 200.945 239.675 200.437C239.473 199.928 239.373 199.314 239.373 198.597C239.375 197.879 239.477 197.269 239.678 196.766C239.881 196.261 240.171 195.875 240.548 195.61C240.927 195.344 241.38 195.211 241.907 195.211C242.434 195.211 242.887 195.344 243.266 195.61C243.645 195.875 243.935 196.261 244.136 196.766C244.34 197.271 244.441 197.882 244.441 198.597C244.441 199.316 244.34 199.931 244.136 200.44C243.935 200.948 243.645 201.336 243.266 201.603C242.889 201.871 242.436 202.005 241.907 202.005ZM241.907 200.999C242.318 200.999 242.643 200.797 242.88 200.392C243.12 199.985 243.24 199.387 243.24 198.597C243.24 198.074 243.185 197.635 243.076 197.28C242.967 196.924 242.813 196.657 242.614 196.477C242.414 196.295 242.179 196.204 241.907 196.204C241.498 196.204 241.175 196.407 240.937 196.814C240.699 197.219 240.579 197.813 240.577 198.597C240.575 199.121 240.628 199.563 240.735 199.92C240.844 200.278 240.998 200.548 241.197 200.73C241.396 200.909 241.633 200.999 241.907 200.999Z" fill="#111111"/>
<line x1="81.3804" y1="183.965" x2="244.883" y2="183.965" stroke="#E6E9F0" stroke-width="0.695756"/>
<circle cx="84.1634" cy="148.134" r="2.78303" fill="#CFD4DF"/>
<circle cx="84.1634" cy="170.398" r="2.78303" fill="#50D8D5"/>
<circle cx="84.1634" cy="198.229" r="2.78303" fill="#443DD8"/>
</g>
<defs>
<filter id="filter0_ddd_8204_10272" x="-0.000152588" y="0" width="326.213" height="377.535" filterUnits="userSpaceOnUse" color-interpolation-filters="sRGB">
<feFlood flood-opacity="0" result="BackgroundImageFix"/>
<feColorMatrix in="SourceAlpha" type="matrix" values="0 0 0 0 0 0 0 0 0 0 0 0 0 0 0 0 0 0 127 0" result="hardAlpha"/>
<feOffset dy="5.3768"/>
<feGaussianBlur stdDeviation="2.15072"/>
<feColorMatrix type="matrix" values="0 0 0 0 0.0784314 0 0 0 0 0.0823529 0 0 0 0 0.0901961 0 0 0 0.0161557 0"/>
<feBlend mode="normal" in2="BackgroundImageFix" result="effect1_dropShadow_8204_10272"/>
<feColorMatrix in="SourceAlpha" type="matrix" values="0 0 0 0 0 0 0 0 0 0 0 0 0 0 0 0 0 0 127 0" result="hardAlpha"/>
<feOffset dy="18.0595"/>
<feGaussianBlur stdDeviation="7.22382"/>
<feColorMatrix type="matrix" values="0 0 0 0 0.0784314 0 0 0 0 0.0823529 0 0 0 0 0.0901961 0 0 0 0.0238443 0"/>
<feBlend mode="normal" in2="effect1_dropShadow_8204_10272" result="effect2_dropShadow_8204_10272"/>
<feColorMatrix in="SourceAlpha" type="matrix" values="0 0 0 0 0 0 0 0 0 0 0 0 0 0 0 0 0 0 127 0" result="hardAlpha"/>
<feOffset dy="80.8528"/>
<feGaussianBlur stdDeviation="32.3411"/>
<feColorMatrix type="matrix" values="0 0 0 0 0.0784314 0 0 0 0 0.0823529 0 0 0 0 0.0901961 0 0 0 0.04 0"/>
<feBlend mode="normal" in2="effect2_dropShadow_8204_10272" result="effect3_dropShadow_8204_10272"/>
<feBlend mode="normal" in="SourceGraphic" in2="effect3_dropShadow_8204_10272" result="shape"/>
</filter>
<filter id="filter1_ddi_8204_10272" x="156.34" y="91.348" width="13.9148" height="13.9151" filterUnits="userSpaceOnUse" color-interpolation-filters="sRGB">
<feFlood flood-opacity="0" result="BackgroundImageFix"/>
<feColorMatrix in="SourceAlpha" type="matrix" values="0 0 0 0 0 0 0 0 0 0 0 0 0 0 0 0 0 0 127 0" result="hardAlpha"/>
<feOffset dy="0.695756"/>
<feGaussianBlur stdDeviation="1.04363"/>
<feColorMatrix type="matrix" values="0 0 0 0 0.211765 0 0 0 0 0.219608 0 0 0 0 0.25098 0 0 0 0.15 0"/>
<feBlend mode="normal" in2="BackgroundImageFix" result="effect1_dropShadow_8204_10272"/>
<feColorMatrix in="SourceAlpha" type="matrix" values="0 0 0 0 0 0 0 0 0 0 0 0 0 0 0 0 0 0 127 0" result="hardAlpha"/>
<feOffset dy="0.695756"/>
<feColorMatrix type="matrix" values="0 0 0 0 0.439216 0 0 0 0 0.466667 0 0 0 0 0.537255 0 0 0 0.08 0"/>
<feBlend mode="normal" in2="effect1_dropShadow_8204_10272" result="effect2_dropShadow_8204_10272"/>
<feBlend mode="normal" in="SourceGraphic" in2="effect2_dropShadow_8204_10272" result="shape"/>
<feColorMatrix in="SourceAlpha" type="matrix" values="0 0 0 0 0 0 0 0 0 0 0 0 0 0 0 0 0 0 127 0" result="hardAlpha"/>
<feOffset dy="-1.39151"/>
<feGaussianBlur stdDeviation="0.695756"/>
<feComposite in2="hardAlpha" operator="arithmetic" k2="-1" k3="1"/>
<feColorMatrix type="matrix" values="0 0 0 0 0.901961 0 0 0 0 0.901961 0 0 0 0 0.92549 0 0 0 0.15 0"/>
<feBlend mode="normal" in2="shape" result="effect3_innerShadow_8204_10272"/>
</filter>
</defs>
</svg>
