<svg width="72" height="12" viewBox="0 0 72 12" fill="none" xmlns="http://www.w3.org/2000/svg">
<path d="M12 0H0V12H12V0Z" fill="#06AB6F"/>
<path d="M6.00029 8.08728L7.82529 7.62478L8.58779 9.97478L6.00029 8.08728ZM10.2003 5.04978H6.98779L6.00029 2.02478L5.01279 5.04978H1.80029L4.40029 6.92478L3.41279 9.94978L6.01279 8.07478L7.61279 6.92478L10.2003 5.04978Z" fill="white"/>
<path d="M27 0H15V12H27V0Z" fill="#06AB6F"/>
<path d="M21.0003 8.08728L22.8253 7.62478L23.5878 9.97478L21.0003 8.08728ZM25.2003 5.04978H21.9878L21.0003 2.02478L20.0128 5.04978H16.8003L19.4003 6.92478L18.4128 9.94978L21.0128 8.07478L22.6128 6.92478L25.2003 5.04978Z" fill="white"/>
<path d="M42 0H30V12H42V0Z" fill="#06AB6F"/>
<path d="M36.0003 8.08728L37.8253 7.62478L38.5878 9.97478L36.0003 8.08728ZM40.2003 5.04978H36.9878L36.0003 2.02478L35.0128 5.04978H31.8003L34.4003 6.92478L33.4128 9.94978L36.0128 8.07478L37.6128 6.92478L40.2003 5.04978Z" fill="white"/>
<path d="M57 0H45V12H57V0Z" fill="#06AB6F"/>
<path d="M51.0003 8.08728L52.8253 7.62478L53.5878 9.97478L51.0003 8.08728ZM55.2003 5.04978H51.9878L51.0003 2.02478L50.0128 5.04978H46.8003L49.4003 6.92478L48.4128 9.94978L51.0128 8.07478L52.6128 6.92478L55.2003 5.04978Z" fill="white"/>
<path d="M72 0H60V12H72V0Z" fill="#06AB6F"/>
<path d="M66.0003 8.08728L67.8253 7.62478L68.5878 9.97478L66.0003 8.08728ZM70.2003 5.04978H66.9878L66.0003 2.02478L65.0128 5.04978H61.8003L64.4003 6.92478L63.4128 9.94978L66.0128 8.07478L67.6128 6.92478L70.2003 5.04978Z" fill="white"/>
</svg>
